<?xml version="1.0" encoding="iso-8859-1"?>
<svg id="Layer_1" data-name="Layer 1" xmlns="http://www.w3.org/2000/svg" xmlns:xlink="http://www.w3.org/1999/xlink" viewBox="0 0 720 504"><defs><style>.cls-1{fill:#e37b29;}.cls-2{fill:url(#linear-gradient);}.cls-3{fill:url(#linear-gradient-2);}.cls-4{fill:url(#linear-gradient-3);}.cls-5{fill:url(#linear-gradient-4);}</style><linearGradient id="linear-gradient" x1="334.92" y1="305.82" x2="334.92" y2="149.61" gradientTransform="matrix(-1, 0, 0, 1, 720, 0)" gradientUnits="userSpaceOnUse"><stop offset="0" stop-color="#e37b29"/><stop offset="1" stop-color="#ffae00"/></linearGradient><linearGradient id="linear-gradient-2" x1="373.05" y1="305.82" x2="373.05" y2="149.61" xlink:href="#linear-gradient"/><linearGradient id="linear-gradient-3" x1="388.19" y1="417.25" x2="388.19" y2="187.23" xlink:href="#linear-gradient"/><linearGradient id="linear-gradient-4" x1="238.85" y1="176.76" x2="488.46" y2="176.76" xlink:href="#linear-gradient"/></defs><title>JBCDN Logo</title><path class="cls-1" d="M122.38,393.75q0,28.26-16.79,41.28-14.9,11.31-44.37,11.31H18.56V426H61.22q19.88,0,29.3-6Q102,412.42,102,393.75V329.33h20.39Z"/><path class="cls-1" d="M275.71,412.25a28.53,28.53,0,0,1-3.77,14.22q-11.31,19.69-42.83,19.7H145.17v-117h83.94q30,0,42,18.67a30.33,30.33,0,0,1,4.62,16.11q0,14.56-12.33,24.5Q275.71,398,275.71,412.25ZM256,363.77q0-7.36-8.57-11.31a37.8,37.8,0,0,0-15.24-2.91H165.55v76.23H232.2a40.22,40.22,0,0,0,14.9-2.57q8.91-3.76,8.91-10.79,0-7.2-8.91-11a38.85,38.85,0,0,0-14.9-2.75H177.54V378.33H232.2a35.89,35.89,0,0,0,15.24-3.09Q256,371.31,256,363.77Z"/><path class="cls-1" d="M419.28,446.34H353.15q-25.53,0-42.23-17t-16.71-42.83q0-25.69,16.53-41.46t42.41-15.76h66.13v20.39H353.15q-16.8,0-27.67,10.79T314.6,388.26q0,16.8,10.88,27.24T353.15,426h66.13Z"/><path class="cls-1" d="M568,386.55q0,25.88-16.62,42.83t-42.31,17h-66v-117h66q25.86,0,42.4,15.76T568,386.55Zm-20.38,1.71q0-17-10.88-27.75t-27.67-10.79H463.3V426h45.75q16.79,0,27.67-10.46T547.6,388.26Z"/><path class="cls-1" d="M701.44,436.23q0,11.31-7.71,11.31-5.65,0-12.68-7l-75-75.38v81.2H585.8V339.44a11.62,11.62,0,0,1,2.22-7.11,7.43,7.43,0,0,1,6.34-3q5.65,0,11.65,6l75,75.21V329.33h20.39Z"/><path class="cls-2" d="M281.91,197.75c.65,10.33,3.62,20.11,6.26,30,2.32,8.61,4.5,17.23,6,26,1,5.67.74,11.35-1.68,16.56a107.35,107.35,0,0,0,16.12,9.58c4-4.7,5.94-10.47,7.58-16.36,1-3.8,1.66-7.68,2.53-11.51.53-2.31,1.79-2.82,4-1.8,5.27,2.46,10.55,4.93,15.83,7.36,2,.94,3,.36,2.86-1.95a11.83,11.83,0,0,1,2.13-8.27,7.16,7.16,0,0,1,1.61-1.68,1.74,1.74,0,0,1,1.49-.25,1.58,1.58,0,0,1,.35,1.42c-3.57,11.33,1.56,19.49,9.63,26.61.64.6,1.26,1.2,1.88,1.77a7.88,7.88,0,0,1-.18.87c-1.46-.11-3-.18-4.41-.27-5.41-.4-10.6,0-14.9,3.79-2.24,1.95-3.43,4.3-2.55,7.34a5.92,5.92,0,0,0,1.24,2.28,7.73,7.73,0,0,0,5.15,2c3.46.29,6.94.27,10.42.27,14.12-.09,28.24-.11,42.39-.18,12.73,0,25.43-.11,38.16-.31,10.66-.15,21.17-1.75,30.84-6.91,10.68-5.73,18.09-14.26,21.61-25.75a50.29,50.29,0,0,0,.45-28,44,44,0,0,0-16-23.79,41.65,41.65,0,0,0-6.63-4.12,42.38,42.38,0,0,0-11.2-3.77c-5.67-1.09-11.28-1.44-16.85.13a11.82,11.82,0,0,0-4.25,2.37c-2.73,2.29-2.49,5.64.75,7.1a21.94,21.94,0,0,0,8.6,2,31.4,31.4,0,0,1,13.39,3.19,38.34,38.34,0,0,1,5.68,3.31,31.46,31.46,0,0,1,5.88,5.25,35,35,0,0,1,3,4.12c5.24,8.52,4.88,17,.76,25.68-4.66,9.8-12.53,15.54-22.84,18.67a46.27,46.27,0,0,1-17,1.5c-.31,0-.66,0-1,0-3.62-.31-5.86-1.15-7.08-2.95-1-1.42-1.39-3.46-1.35-6.32A154.1,154.1,0,0,0,418.24,231c-2.48-13.22-7.76-25-17.56-34.34a55.56,55.56,0,0,0-30.21-15c-6.5-1-13.09-1.86-19-5.3a20.28,20.28,0,0,1-2-1.35c-.33-.25-.66-.49-1-.76a15.21,15.21,0,0,1-3.13-3.39,8.35,8.35,0,0,1-.62-.93,19.29,19.29,0,0,1-2.64-10.62c1.13-9.64,4.79-18,9.49-25.87,5-8.45,6.76-17.52,6.36-27.19-.44-10.64-2.46-20.79-8.24-29.93A38.78,38.78,0,0,0,346.45,72c-.08-.13-.22-.24-.31-.38-1.46-1.5-2.77-1.26-4.08.47-.08.11-.15.24-.26.4-2.31,3.43-4.79,6.78-7.27,10.13-1,1.37-2.29,1.53-4,1-11.5-3.46-21.88-1.84-30.1,7.58-2.18,2.53-4.79,2.24-7.52,2.31a8.81,8.81,0,0,0-4.46,1.2A5.22,5.22,0,0,0,287,95.87L287,96a5.9,5.9,0,0,0-1.38,3.46c-.62,6.36.58,12.26,5.68,16.78,1.33,1.2,2.68,2.42,4.05,3.61,8.16,7.3,8.61,14.79,4.22,23.79-1,2-2.09,3.86-3.24,5.88l0,0c-1.78,1.58-6.17,11.77-7,13.68l-.14.31c-1.68,3.44-3.39,6.87-4.76,10.44C281.51,181.58,281.45,189.63,281.91,197.75Zm37.63-99.46a2.49,2.49,0,0,1-.36,1.53c-1.66,2.54-4.05,3.9-7.78,4.3a25.94,25.94,0,0,1-4.81-2.53c-.58-.47-.69-2.71-.13-3.17a26.43,26.43,0,0,1,6-4.15C314.48,93.19,319.21,96,319.54,98.29Z"/><path class="cls-3" d="M345.39,170.85a15.21,15.21,0,0,0,3.13,3.39A18.89,18.89,0,0,1,345.39,170.85Z"/><path class="cls-4" d="M326.62,84.26c1.14.5,3,1,3.76.46a21.89,21.89,0,0,0,7-10.57c.18-.5-.5-3.51-1.29-4.15-.22-.22-1.65.57-2.15,1.18-1.08,1.4-2.12,2.83-3.16,4.26-1.46,2-2.9,4.09-4.3,6.17C326.05,82.25,326.22,84.11,326.62,84.26Z"/><path class="cls-5" d="M231.54,181.28A124.32,124.32,0,0,0,265.69,267a118.79,118.79,0,0,0,9.85,9.33A121.08,121.08,0,0,0,286.87,285a123.66,123.66,0,0,0,22.9,12.11c.33-.29.67-.6,1-.91a35.38,35.38,0,0,0,4.56-5.29,117,117,0,0,1,32-226.3c3-.23,6-.33,9-.33.59,0,1.19,0,1.76,0a117.15,117.15,0,0,1,115.25,117,120.26,120.26,0,0,1-.62,12.21,53.32,53.32,0,0,1,7.36,3.81,121.2,121.2,0,0,0,1-16A124.8,124.8,0,0,0,356.36,56.46c-1.51,0-3,0-4.51.1-2.7.08-5.37.26-8,.52-3.61.36-7.19.88-10.69,1.53s-6.89,1.45-10.29,2.41h0a123,123,0,0,0-19.11,7.06c-1.58.72-3.16,1.5-4.71,2.3a128.48,128.48,0,0,0-12.55,7.47,125.26,125.26,0,0,0-54.92,103.43Z"/></svg>