<?xml version="1.0" encoding="iso-8859-1"?>
<svg id="Layer_1" data-name="Layer 1" xmlns="http://www.w3.org/2000/svg" viewBox="0 0 1008 720"><defs><style>.cls-1{fill:none;}.cls-2{fill:#fff;}</style></defs><title>Logo White</title><path class="cls-1" d="M168,310C78.65,332.67,21.2,434.83,21.2,482.87c0,15.48,5.83,25.27,18.4,25.27A33,33,0,0,0,48,507c30.41-8.2,92.46-135.37,107.05-167.53S164,319.44,168,310Z"/><path class="cls-1" d="M611.13,491.15a3.75,3.75,0,0,0-1-2.67,4,4,0,0,0-3.08-1h-6.31V495h5.6a7.15,7.15,0,0,0,2.85-.45,2.77,2.77,0,0,0,1.39-1.31A4.37,4.37,0,0,0,611.13,491.15Z"/><path class="cls-1" d="M549.72,487.88a9.28,9.28,0,0,0-2.51-.21h-5v8.25h5a4.66,4.66,0,0,0,3.51-1.07,4.48,4.48,0,0,0,1-3.15,4.93,4.93,0,0,0-.61-2.54A2.65,2.65,0,0,0,549.72,487.88Z"/><path class="cls-1" d="M268.78,486.62a39.3,39.3,0,0,1-1.2,5.16l-2.43,7.92h7.51l-2.31-7.48Q269.28,488.81,268.78,486.62Z"/><path class="cls-1" d="M450.11,374.88l-13.8,4.64s3.7,1.05,10,3.17Z"/><path class="cls-1" d="M304.58,493.57a5.12,5.12,0,0,0,.59-2.42A4.45,4.45,0,0,0,304,488a4.7,4.7,0,0,0-3.6-1.24h-7v8.94h6.31a7.89,7.89,0,0,0,3.14-.5A3.54,3.54,0,0,0,304.58,493.57Z"/><path class="cls-1" d="M149.37,487.73a6.32,6.32,0,0,0-4-1.35,6.87,6.87,0,0,0-5.36,2.61c-1.49,1.73-2.24,4.64-2.24,8.71a12.39,12.39,0,0,0,2.15,7.69,6.62,6.62,0,0,0,10.85,0q2.15-2.83,2.14-8.05a16.5,16.5,0,0,0-.91-5.76A8.29,8.29,0,0,0,149.37,487.73Z"/><path class="cls-1" d="M519.19,488.29a5.61,5.61,0,0,0-3.52-1.21,6.11,6.11,0,0,0-4.82,2.37c-1.38,1.6-2.08,4.37-2.08,8.25a11.75,11.75,0,0,0,2,7.26,5.92,5.92,0,0,0,9.72,0c1.33-1.76,2-4.33,2-7.63a15.87,15.87,0,0,0-.87-5.52A7.73,7.73,0,0,0,519.19,488.29Z"/><path class="cls-1" d="M372.51,488.16a8.63,8.63,0,0,0-3.49-.49h-3.95V506.9h4a9.07,9.07,0,0,0,3.17-.44,4.19,4.19,0,0,0,1.71-1.2,8.48,8.48,0,0,0,1.48-3.15,19.59,19.59,0,0,0,.56-5,14.24,14.24,0,0,0-1.07-6.2A5.59,5.59,0,0,0,372.51,488.16Z"/><path class="cls-1" d="M908,347.36l-1.79,1.72c.11.4.11.79.22,1.06C907,349.21,907.57,348.28,908,347.36Z"/><path class="cls-1" d="M440.27,436.11l.92-.13q45.92-6.48,92.17-11.51c-26.48-12.13-51.72-22.37-71.92-29.74C453.76,410,446.24,424.75,440.27,436.11Z"/><path class="cls-1" d="M902.19,343.78a3.7,3.7,0,0,0-1.24-.13c-1.45,0-3.14.66-4.93,2.91-3.37,4.37-5.39,9.4-5.39,11.52,0,.53.11.79.34.92h.11c1,0,7.52-5.82,13.8-11.64A6.32,6.32,0,0,0,902.19,343.78Z"/><path class="cls-1" d="M600.58,339.29c0-.67-.34-1.2-1-1.2a1,1,0,0,0-.56.14c-2.81.92-5.84,5.16-5.84,5.16C598.67,343.26,600.58,340.74,600.58,339.29Z"/><path class="cls-1" d="M763.49,412.78c-11.14.35-22.27.82-33.4,1.35a212.5,212.5,0,0,0-13.71,16.71c-11.31,15.62-18,29.63-18.12,39.17-.1,7.58,3.88,12.18,12.74,12.75h.79c20.75.26,71.1-31.53,99.24-55.87a121.34,121.34,0,0,0,14.71-15.11Q794.63,411.84,763.49,412.78Z"/><path class="cls-1" d="M827.72,409.28c13.39-17.44,20.14-36.91,20.38-55.72a86.26,86.26,0,0,0-.74-12,51.58,51.58,0,0,0-1.81-8.05A184.33,184.33,0,0,0,800.85,354a340.82,340.82,0,0,0-40.79,31c-3.8,7.68-6.35,13.41-6.37,15.22-.2,6.67-1.78,7.41-1.78,7.41-2.32-2.31-3.29-6.11-3.22-11l0-1.51c-5.17,4.87-10.19,9.88-14.89,14.9,9.32-.29,18.64-.54,28-.69Q794.8,408.84,827.72,409.28Z"/><path class="cls-1" d="M669.92,339.29c0-.67-.34-1.2-1-1.2a1,1,0,0,0-.56.14c-2.8.92-5.83,5.16-5.83,5.16C668,343.26,669.92,340.74,669.92,339.29Z"/><polygon class="cls-2" points="687.71 307.13 680.29 307.13 673.57 315.42 678.38 315.42 687.71 307.13"/><path class="cls-2" d="M187,306.2c5.16-.79,5.5-1.32,9.31-1.32,2.25,0,5.61.13,11.9.53,17.05,1.19,27,6.61,27,6.61s-1.91-5-13.24-7.54c-7.3-1.59-12.57-2.78-19.53-2.78a104.72,104.72,0,0,0-14.14,1.19c11-26.73,16.39-45,16.39-61.66a74.35,74.35,0,0,0-1.35-14.16c-2.24-11.78-12-16.68-25.69-16.68-47.58,0-143.07,59.29-143.07,103.49A27.45,27.45,0,0,0,39,329a5.56,5.56,0,0,0,2.58-4.36v-.4c-.11-2.12-4.6-5.29-4.6-7.68v-.13c1.46-49,92.23-100,133.86-100,9.31,0,16.16,2.51,19,8.2a20.56,20.56,0,0,1,1.8,9.4c0,15.22-9,41-22.11,72.38C82.69,327.11,15,433.51,15,488.82c0,19.06,8,32,25.92,33.35.56,0,1.23.13,1.9.13,33.22,0,75-68.81,102.11-123.07C172.68,343.78,176,332.54,187,306.2ZM48,507a33,33,0,0,1-8.41,1.19c-12.57,0-18.4-9.79-18.4-25.27,0-48,57.45-150.2,146.76-172.83-3.92,9.4,1.69-2.91-12.9,29.38S78.42,498.75,48,507Z"/><path class="cls-2" d="M278.26,323.54a2.5,2.5,0,1,0,4.94,0,2.5,2.5,0,1,0-4.94,0Z"/><path class="cls-2" d="M303.73,343.12H304s.11,0,.11.14c0,1.32-5.16,9.79-5.16,15.08a4.8,4.8,0,0,0,.78,2.91,2.1,2.1,0,0,0,1.8.66c6.4,0,23.56-14.68,23.67-15.21,0-.14,0-.14-.11-.14-.56,0-3.36,1.86-8.53,5.69-4.82,3.71-8,5.3-9.31,5.3a.77.77,0,0,1-.56-.27v-.13c0-1.19,8.08-13,8.08-17.34a2,2,0,0,0-.11-.79,4.12,4.12,0,0,0-3.82-2.78c-2,0-4.6,1.19-8,4-6.4,5.43-12.35,10.72-12.35,10.72s8.76-11.64,8.76-14.56v-.26c-.45-1.19-2.47-1.85-4.61-1.85s-4.37.66-5.27,2.51c0,0-2.78,4.57-5.58,9.79h0S262.55,363.77,261,364.43c-.11,0-.11,0-.11-.13,0-1.46,14.81-22.63,15.93-24.09a32.6,32.6,0,0,1,2.14-2.51s-1.69-5.3-5.05-5.3a4.17,4.17,0,0,0-2.25.8s-5.39,7.52-10.61,15.92c-3,2.47-7.91,6.37-13.62,10.28s-10.33,7.15-11.9,7.15c-.33,0-.45-.14-.45-.53a3.56,3.56,0,0,1,.56-1.72c2.92-5.69,20.09-33.75,30.08-48.7,8.52-.8,17.95-1.46,23.67-1.46a23.78,23.78,0,0,1,3.26.13c8.3.8,10.77,5.43,10.77,5.43h.45a5,5,0,0,0,2.35-.53c1.57-.79,5.39-6.48,5.39-9.13a1.83,1.83,0,0,0-.45-1.19,7.71,7.71,0,0,0-2.58-.27c-7,0-26.37,1.86-40.17,3.05,1.57-2.25,2.92-4,3.7-4.9,4.6-4.76,6-4,8.3-6.22a3.91,3.91,0,0,0,.9-2.78c0-3-2-7-5.61-7a2.73,2.73,0,0,0-1,.13s-3.59,0-7.52,6.09-4.82,6.88-6.95,10.32l-3.26,5.29c-1.12,0-2,.14-2.69.14h-9.76c-8.08,0-16.94.13-18.4,1.72a5.38,5.38,0,0,0-1,3.7,22.36,22.36,0,0,0,.67,5,1.4,1.4,0,0,0,.79.27c.44,0,1.12-.27,1.9-1.33,1.46-2,6.17-3.57,8.53-3.84a87.08,87.08,0,0,1,10.66-1.32c1.23,0,3.7-.13,6.85-.4-6.27,10.19-11.74,19.25-18.43,30.53l-11.65,5.47c-1-2.46-3.15-3-4.05-5.23.64-.38,1-.59,1-.59h-1.23a6.75,6.75,0,0,1-.23-1.86v-.26c0-2.65,1-3.44,2.24-3.44,1.57,0,3.59,1.59,3.59,1.59,1.68-1.19,3-4.77,3-7.68,0-2-.67-3.7-2.13-4h-.79c-3.81,0-10.55,3.57-11.67,10.19a7.74,7.74,0,0,0-.11,1.59,11.71,11.71,0,0,0,2,6.17c-3.87,2.23-9.24,5.26-9.87,5.34-.12,0-.12,0-.12-.13,0-1.32,6.18-10.85,6.85-10.85h.11c.11,0,.11-.13.11-.27a5.79,5.79,0,0,0-2.13-2.78,3.77,3.77,0,0,0-2.35-.92,2.41,2.41,0,0,0-1.91.79,58.66,58.66,0,0,0-3.48,5c-4.94,3.84-12.12,9.13-12.79,9.13v-.13c0-1.19,7.74-13.5,8.64-13.5a2.11,2.11,0,0,1,1.34.53s-.11-4-2.46-6.09a3.92,3.92,0,0,0-2.7-1.19,2.66,2.66,0,0,0-2.13,1.19s-12.79,18.93-12.79,23.16v.4c.45,1.45,1.12,2.25,2.24,2.25,1.46,0,3.48-1.19,6.4-3.31,3.14-2.25,8.3-6.09,11.89-8.87-1.79,3.18-3.47,6.36-3.47,7.94a3.31,3.31,0,0,0,.11.53c.56,1.72,1.46,2.91,3,2.91,1.34,0,3.14-.92,5.83-3.3a83.18,83.18,0,0,1,10.05-7.26,22.38,22.38,0,0,0,4.2,4.48s-3.25.66-8.64,5c-2.92,2.38-4.15,4.63-4.15,6.08a1.71,1.71,0,0,0,1.91,1.72h.56c3.25-.53,13.8-1.58,14.58-9.92V356a11.32,11.32,0,0,0-.22-2.25l10.57-5.41c-1,1.66-2,3.37-3.05,5.15-1.46,2.64-4.6,9.79-4.6,11.51v.13c.33,2.78-.23,6.09,3.25,6.09a7.07,7.07,0,0,0,2.25-.27c8-1.87,18-10.28,25-17.09-3.77,6.44-6.86,12.7-6.86,15.9a2.41,2.41,0,0,0,.45,1.59,1.63,1.63,0,0,0,1.35.53c5.67,0,22.89-16.52,29.48-23-2.43,4.67-4.57,9.41-4.57,11.54a1.12,1.12,0,0,0,.33.92,7.63,7.63,0,0,0,4.83,1.86h.34S301.6,344.05,303.73,343.12Z"/><path class="cls-2" d="M585.09,361a1.29,1.29,0,0,1-1.12-1.46c0-1.59,1.57-4.89,7.18-12.57,0,0,10.66-.53,12.57-6.75a6.63,6.63,0,0,0,.23-1.45c0-2.52-2.14-4.64-5.39-4.64-3.82,0-9.31,2.92-15,11.12-4.48,6.48-6.06,11.25-6.06,14.42,0,3.58,2.14,5.17,4.38,5.17a5.59,5.59,0,0,0,2-.4c4-1.83,23.1-14.27,28.3-17.67-2.82,5.27-5.64,11.13-5.64,13.57a1.12,1.12,0,0,0,.34.92,7.61,7.61,0,0,0,4.83,1.86H612s18.07-19.06,20.2-20h.22a.12.12,0,0,1,.12.14c0,1.32-5.16,9.79-5.16,15.08a4.8,4.8,0,0,0,.78,2.91,2.1,2.1,0,0,0,1.8.66c4.52,0,14.44-7.35,19.89-11.84-2.21,4.09-3.06,7.27-3.06,9.59,0,3.58,2.13,5.17,4.37,5.17a5.55,5.55,0,0,0,2-.4c4.6-2.12,29.63-18.53,29.63-18.53l-1.46-.13S656.12,361,654.44,361a1.29,1.29,0,0,1-1.13-1.46c0-1.59,1.58-4.89,7.19-12.57,0,0,10.66-.53,12.56-6.75a6.08,6.08,0,0,0,.23-1.45c0-2.52-2.13-4.64-5.39-4.64-3.81,0-9.31,2.92-15,11.12-.64.91-1.21,1.79-1.73,2.64-1.42.94-3.45,2.38-6.13,4.37-4.82,3.71-8,5.3-9.31,5.3a.75.75,0,0,1-.56-.27v-.13c0-1.19,8.08-13,8.08-17.34a1.84,1.84,0,0,0-.12-.79,4.1,4.1,0,0,0-3.81-2.78c-2,0-4.6,1.19-8,4-6.39,5.43-12.34,10.72-12.34,10.72s8.75-11.64,8.75-14.56v-.26c-.45-1.19-2.47-1.85-4.6-1.85s-4.37.66-5.27,2.51c0,0-2.53,4.16-5.19,9.06l-.65-.06S586.78,361,585.09,361ZM599,338.23a1,1,0,0,1,.56-.14c.67,0,1,.53,1,1.2,0,1.45-1.91,4-7.41,4.1C593.17,343.39,596.2,339.15,599,338.23Zm69.34,0a1,1,0,0,1,.56-.14c.67,0,1,.53,1,1.2,0,1.45-1.91,4-7.4,4.1C662.52,343.39,665.55,339.15,668.35,338.23Z"/><path class="cls-2" d="M989.6,292a6.29,6.29,0,0,0-3.37-1.32,6.4,6.4,0,0,0-3.82,1.72s-7.74,12.31-9.31,15.35-2.35,3.7-4.82,6.48-4,8.21-8.19,14c-2.14,3-7.48,11.63-11.92,19.26-4.53,3.61-14.2,11.05-16.92,11.05-.11,0-.23-.14-.34-.14a1.07,1.07,0,0,1-.56-1.05c0-3.18,6.17-12.05,8.87-13.77a4.25,4.25,0,0,1,1.9-.79h.34a3.65,3.65,0,0,1,.22,1.06,3.45,3.45,0,0,1-2,2.91,4.88,4.88,0,0,0,1.58.26,2.84,2.84,0,0,0,3-2.51,8.31,8.31,0,0,0,.22-2.25c0-3.44-2-5.43-4.94-5.43-3.7,0-8.86,3.05-13.24,10.06-1.91,3.18-2.8,5.82-2.8,8.07a8.74,8.74,0,0,0,.16,1.66,140.42,140.42,0,0,1-21.26,19.25c2.81-8.86,18.74-34.67,18.74-34.8v-.93c0-3.17-1.46-5.69-3.48-5.69-1.23,0-2.58.93-3.81,3.18,0,0-.79,1.32-2,3.31-1.91,1.72-4,3.7-6.29,5.69-1-3.58-2.8-7.94-5.38-9.93l-.11-.13a7,7,0,0,0-4.15-1.32,10.43,10.43,0,0,0-3.26.52c-7.74,2.65-13.13,16.81-13.13,22.77v.26c0,5.43,3.37,7.28,5.73,7.28h.67c2.47-.53,11.44-8.6,17.05-14l2.7-2.51c.11.39.22.79.33,1.32-6.39,11.12-14.47,26.2-14.47,32.16a2.88,2.88,0,0,0,.67,2.12,2.77,2.77,0,0,0,1.46.39c6,0,20.68-15.42,30.76-26.91a5.79,5.79,0,0,0,5.15,2.83h.33c3.39-.17,11.37-6.58,16.64-11.13-3,5.2-5.19,9.49-5.19,10.47V361c.45,1.45,1.34,4.5,3.59,4.5a3.75,3.75,0,0,0,1.57-.4c3.48-1.85,14.81-22,19.41-23.95a2.62,2.62,0,0,1,1.35-.27c.67,0,.89.27.89.93,0,1.85-2.91,5.82-8.86,8.34a10.09,10.09,0,0,0-1.68,5.16,5.62,5.62,0,0,0,1.79,4.1,2.52,2.52,0,0,0,1.8.53c6.95,0,27-13.76,27-13.76l-.79-.66s-12.56,7.54-17.5,9a17.44,17.44,0,0,1-5.05.93c-1.57,0-2.47-.53-2.58-1.72,0-2.12,15.26-8.73,15.71-14.42v-.4c0-2.12-1.35-3.05-3.48-3.05-3.37,0-8.42,2.39-12.68,6.75,0,0,20.2-34,24.13-38.24,2.8-3.18,4.93-4.24,6-4.24a.84.84,0,0,1,.79.4s0,.13.11.13v-.53C993,298.66,992.29,294,989.6,292Zm-98.52,67H891c-.23-.13-.34-.39-.34-.92,0-2.12,2-7.15,5.39-11.52,1.79-2.25,3.48-2.91,4.93-2.91a3.7,3.7,0,0,1,1.24.13,6.32,6.32,0,0,1,2.69,3.58C898.6,353.18,892.09,359,891.08,359ZM908,347.36c-.45.92-1,1.85-1.57,2.78-.11-.27-.11-.66-.22-1.06Z"/><path class="cls-2" d="M119.31,496.57a25.31,25.31,0,0,0-4.91-1.72c-2.38-.66-3.86-1.3-4.42-1.93a3.43,3.43,0,0,1-.86-2.4,3.83,3.83,0,0,1,1.22-2.86,5.38,5.38,0,0,1,3.87-1.19,5.24,5.24,0,0,1,3.86,1.31,6,6,0,0,1,1.54,3.87l2.81-.26a9.47,9.47,0,0,0-1.09-4.26,6.74,6.74,0,0,0-2.89-2.85,9.48,9.48,0,0,0-4.35-1,8.79,8.79,0,0,0-4.06.92,6.28,6.28,0,0,0-2.79,2.7,8,8,0,0,0-.95,3.82,7.18,7.18,0,0,0,.78,3.37,6.53,6.53,0,0,0,2.37,2.51,17.73,17.73,0,0,0,4.27,1.69,35.21,35.21,0,0,1,4,1.32,4.5,4.5,0,0,1,2,1.59,4,4,0,0,1,.61,2.22,4.47,4.47,0,0,1-.63,2.32,4.31,4.31,0,0,1-1.91,1.67,7,7,0,0,1-3,.6,7.05,7.05,0,0,1-3.4-.8,5.23,5.23,0,0,1-2.23-2.1,8.53,8.53,0,0,1-.92-3.33l-2.76.3a10.62,10.62,0,0,0,1.21,4.86,7.6,7.6,0,0,0,3.19,3.21,10.8,10.8,0,0,0,5,1.07,8.56,8.56,0,0,0,4.27-1.06,7.06,7.06,0,0,0,2.91-3,8.46,8.46,0,0,0,1-4.06,7.74,7.74,0,0,0-.92-3.84A7.1,7.1,0,0,0,119.31,496.57Z"/><path class="cls-2" d="M150.94,485.09a9.14,9.14,0,0,0-5.53-1.79,9.25,9.25,0,0,0-7.65,3.81q-3,3.79-3,10.53a18,18,0,0,0,1.27,6.75,11.36,11.36,0,0,0,3.73,5,9.08,9.08,0,0,0,5.59,1.84,9.42,9.42,0,0,0,5.38-1.67,10.71,10.71,0,0,0,3.86-4.91,20.73,20.73,0,0,0,.06-14.61A11.11,11.11,0,0,0,150.94,485.09Zm-.12,20.27a6.62,6.62,0,0,1-10.85,0,12.39,12.39,0,0,1-2.15-7.69c0-4.07.75-7,2.24-8.71a6.87,6.87,0,0,1,5.36-2.61,6.32,6.32,0,0,1,4,1.35,8.29,8.29,0,0,1,2.68,3.82,16.5,16.5,0,0,1,.91,5.76Q153,502.53,150.82,505.36Z"/><polygon class="cls-2" points="168.51 510.8 171.45 510.8 171.45 498.52 181.84 498.52 181.84 495.33 171.45 495.33 171.45 486.97 183.46 486.97 183.46 483.78 168.51 483.78 168.51 510.8"/><polygon class="cls-2" points="194.21 486.97 201.51 486.97 201.51 510.8 204.44 510.8 204.44 486.97 211.77 486.97 211.77 483.78 194.21 483.78 194.21 486.97"/><path class="cls-2" d="M243.43,501.14q-.68,3.32-1.1,5.88a87.78,87.78,0,0,0-1.72-9.57l-3.18-13.67H233.9L229.68,502c-.1.44-.43,2.1-1,5q-.39-2.75-.94-5.53l-3.37-17.71h-3l5.88,27h3l4.7-20.59c.2-.87.42-1.93.65-3.17.07.39.3,1.45.69,3.17L241,510.8h2.83l6.08-27h-3Z"/><path class="cls-2" d="M267.27,483.78l-8.51,27h3.11l2.43-8.18h9.27l2.58,8.18h3.34l-9.06-27Zm-2.12,15.92,2.43-7.92a39.3,39.3,0,0,0,1.2-5.16q.51,2.19,1.57,5.6l2.31,7.48Z"/><path class="cls-2" d="M303.72,499.85a7.38,7.38,0,0,0-1.77-1.34,7.22,7.22,0,0,0,4.72-2.51,7.74,7.74,0,0,0,1.52-4.85,8.89,8.89,0,0,0-.92-4.07,5.27,5.27,0,0,0-2.46-2.57,10.85,10.85,0,0,0-4.51-.73h-9.82v27h2.93v-12h3.4a7.11,7.11,0,0,1,1.64.13,4.05,4.05,0,0,1,1.33.72,7.25,7.25,0,0,1,1.49,1.8c.56.86,1.26,2.11,2.12,3.73l2.93,5.62H310l-3.86-7.35A17.9,17.9,0,0,0,303.72,499.85Zm-4-4.15h-6.31v-8.94h7A4.7,4.7,0,0,1,304,488a4.45,4.45,0,0,1,1.14,3.15,5.12,5.12,0,0,1-.59,2.42,3.54,3.54,0,0,1-1.72,1.63A7.89,7.89,0,0,1,299.72,495.7Z"/><polygon class="cls-2" points="324.38 498.41 336.64 498.41 336.64 495.24 324.38 495.24 324.38 486.97 337.47 486.97 337.47 483.78 321.45 483.78 321.45 510.8 337.98 510.8 337.98 507.61 324.38 507.61 324.38 498.41"/><path class="cls-2" d="M376.77,485.61a7.81,7.81,0,0,0-3.57-2.13,16.1,16.1,0,0,0-4.13-.41h-8.34v28.44h8.7a13.44,13.44,0,0,0,3.76-.49,8.09,8.09,0,0,0,2.89-1.49,9.82,9.82,0,0,0,2.18-2.64,15.41,15.41,0,0,0,1.59-4.12,23.91,23.91,0,0,0,.61-5.63,22.43,22.43,0,0,0-.9-6.63A12.07,12.07,0,0,0,376.77,485.61Zm-1.31,16.5a8.48,8.48,0,0,1-1.48,3.15,4.19,4.19,0,0,1-1.71,1.2,9.07,9.07,0,0,1-3.17.44h-4V487.67H369a8.63,8.63,0,0,1,3.49.49,5.59,5.59,0,0,1,2.44,2.73,14.24,14.24,0,0,1,1.07,6.2A19.59,19.59,0,0,1,375.46,502.11Z"/><polygon class="cls-2" points="396.09 499.12 408.34 499.12 408.34 494.54 396.09 494.54 396.09 487.67 409.17 487.67 409.17 483.07 391.74 483.07 391.74 511.51 409.69 511.51 409.69 506.9 396.09 506.9 396.09 499.12"/><path class="cls-2" d="M430,503.2c-.18.58-.35,1.16-.51,1.75-.15-.57-.32-1.15-.49-1.74l-5.91-20.14h-4.67l9,28.44h4l9.13-28.44h-4.49Z"/><polygon class="cls-2" points="454.57 499.12 466.83 499.12 466.83 494.54 454.57 494.54 454.57 487.67 467.66 487.67 467.66 483.07 450.23 483.07 450.23 511.51 468.18 511.51 468.18 506.9 454.57 506.9 454.57 499.12"/><polygon class="cls-2" points="483.64 483.07 479.29 483.07 479.29 511.51 494.55 511.51 494.55 506.9 483.64 506.9 483.64 483.07"/><path class="cls-2" d="M521.6,484.51a10.24,10.24,0,0,0-14.15,2.16c-2.07,2.65-3.12,6.34-3.12,11a19,19,0,0,0,1.32,7,12.14,12.14,0,0,0,4,5.33,9.81,9.81,0,0,0,6,2,10.2,10.2,0,0,0,5.77-1.79,11.37,11.37,0,0,0,4.11-5.23,19.6,19.6,0,0,0,1.42-7.62,19.8,19.8,0,0,0-1.35-7.52A11.86,11.86,0,0,0,521.6,484.51Zm-1.1,20.43a5.92,5.92,0,0,1-9.72,0,11.75,11.75,0,0,1-2-7.26c0-3.88.7-6.65,2.08-8.25a6.11,6.11,0,0,1,4.82-2.37,5.61,5.61,0,0,1,3.52,1.21,7.73,7.73,0,0,1,2.44,3.5,15.87,15.87,0,0,1,.87,5.52C522.5,500.61,521.83,503.18,520.5,504.94Z"/><path class="cls-2" d="M553.53,484.76a6.68,6.68,0,0,0-3-1.41,16.73,16.73,0,0,0-3.52-.28H537.9v28.44h4.35v-11h5c3.36,0,5.73-.9,7.07-2.67a10.12,10.12,0,0,0,1.94-6.26,10.6,10.6,0,0,0-.73-3.95A7.19,7.19,0,0,0,553.53,484.76Zm-2.75,10.09a4.66,4.66,0,0,1-3.51,1.07h-5v-8.25h5a9.28,9.28,0,0,1,2.51.21,2.65,2.65,0,0,1,1.46,1.28,4.93,4.93,0,0,1,.61,2.54A4.48,4.48,0,0,1,550.78,494.85Z"/><polygon class="cls-2" points="571.55 499.12 583.81 499.12 583.81 494.54 571.55 494.54 571.55 487.67 584.64 487.67 584.64 483.07 567.21 483.07 567.21 511.51 585.15 511.51 585.15 506.9 571.55 506.9 571.55 499.12"/><path class="cls-2" d="M610.9,499.37a5.16,5.16,0,0,0-.58-.55,7.15,7.15,0,0,0,3.57-2.39,8.39,8.39,0,0,0,1.67-5.28,9.73,9.73,0,0,0-1-4.39,6.06,6.06,0,0,0-2.8-2.89,11.37,11.37,0,0,0-4.8-.8H596.44v28.44h4.34v-12h2.7a6.59,6.59,0,0,1,1.42.1,3.37,3.37,0,0,1,1.11.6,6.94,6.94,0,0,1,1.33,1.63c.54.84,1.24,2.07,2.08,3.67l3.13,6h5.29l-4.4-8.4A19.2,19.2,0,0,0,610.9,499.37Zm-1.67-4.82a7.15,7.15,0,0,1-2.85.45h-5.6v-7.53h6.31a4,4,0,0,1,3.08,1,3.75,3.75,0,0,1,1,2.67,4.37,4.37,0,0,1-.51,2.09A2.77,2.77,0,0,1,609.23,494.55Z"/><path class="cls-2" d="M851.13,409.71c12-17.76,18-37.07,18.27-54.21a62.5,62.5,0,0,0-5-26.44c8.33-2.17,6.64-1.58,28.56-4.18a64.08,64.08,0,0,1,9.21-.49c18.51.24,34.92,7,36.59,8.05,1.89.93.73,4.1,2.08,4.12h.45a1.89,1.89,0,0,0,1.48-1.8,5.54,5.54,0,0,0-1.64-3.21c-2.11-2.3-14.59-8.83-32-9.65-2.36-.19-4.83-.22-7.3-.25a161,161,0,0,0-38.77,4.5c-6.57-12.51-18.13-21.3-34.38-23,0,0,33-5.79,41.3-35.39a36.18,36.18,0,0,0,1.36-9.84c.36-27.58-28-59.47-83.38-60.18l-2.47,0c-63.86.39-85.51,26.48-95.56,48.18-3.46,7.54-5.15,16.76-5.26,25.85-.22,16.82,4.61,33.56,11.49,40a67.5,67.5,0,0,1-9.42-35.43,68.49,68.49,0,0,1,6.65-28.26c14.88-31.79,53.15-41.15,80.87-40.8,2.69,0,5.27.22,7.73.4,27.69,2.33,53.79,14.49,63.15,28.55,5.28,8,7.07,17.22,7,25.25-.08,5.91-1.27,11.2-2.76,14.37-3.58,7.38-17.75,18.87-26.66,22.09-5.52,2-7.69,4.6-7.71,6.27,0,.9.76,1.67,2,1.84,3.24.5,20.47,4.66,27.73,24.76-26.47,7.54-42,18.1-64.39,33.73-5.55,3.87-10.76,7.74-15.75,11.77,10.57-19.72,26-46,34.63-58.21,13.83-19.53,28.23-39.65,30.74-43a4.37,4.37,0,0,0,.71-2.56c0-3.94-2.67-10.5-7.39-10.56a8.08,8.08,0,0,0-5,2.21s-22.63,31.69-40,59.36C766.33,342.35,753,370.07,749.57,389a291.7,291.7,0,0,0-21.17,21.28c-43,1.44-86,4.2-128.82,7.81q-28.07,2.37-56.07,5.32c-14-7.32-28.38-14.19-41.45-19.65-14.25-6-27.15-10.85-37.81-14.69,3.7-7.41,7.4-14.82,11-21.83,24.24-6.88,78.88-18.53,110.75-50.95,12.68-13,20.31-30.17,20.31-47.38,0-32.42-27.38-64.84-100-68.15-5.05-.26-10-.26-14.81-.26-100.76,0-147.44,47.24-160.68,65.9-7.85,11-10.43,24.88-10.43,35.46,0,8.08,1.57,14.16,3.48,15.09a43,43,0,0,1-1.57-12.31c0-16.94,7.85-48.43,58.45-75.16,31.42-16.68,67.33-23.43,100-23.43,43.87,0,82.14,12,96.61,27.93a47.71,47.71,0,0,1,12.34,32.42c0,27.79-22.55,61.14-81.23,82.05,0,0-15.71,5.16-28.73,9.79,9.09-18.26,11.89-24.09,19.86-39.17,3.82-7.28,12.34-18.13,12.34-25.94a7.36,7.36,0,0,0-1.34-4.63c-3.48-4.77-6.62-6.35-9.43-6.35-4.71,0-7.85,4.5-7.85,4.5-4.15,8.07-23,46.45-40.51,82.71-4.49.92-10.21,2.25-17.73,4a60.42,60.42,0,0,1-14.25,2c-10.66,0-16.38-4.5-39.72-7.41-2.58-.26-4.94-.4-7-.4-11,0-15,4-15,8.47,0,5,5.16,10.72,11.33,11.91a25.92,25.92,0,0,0,4.71.4c12.12,0,29-6.09,41.86-6.09h1.9c4.27.27,12.91,2.52,24.58,6.35-12.57,26.21-22.78,47.91-23.34,50.29a1.7,1.7,0,0,0,0,.22c-39.81,5.86-79.48,12.45-118.71,20.39a7,7,0,0,0-1.08.15h-.18a5.83,5.83,0,0,0-5,2.27,4.55,4.55,0,0,0,1,7.59,5.7,5.7,0,0,0,4.67,1.81c5.55-.57,11.15-.21,16.71-.71,3.26-.3,6-2,6-4.84a2.63,2.63,0,0,0,0-.49c32.37-6.69,65-12.51,97.79-17.84,1.77,5.07,4.87,9.85,6.64,10.12.62,0,3.43-4.71,7.61-12.4l9.58-1.52q49.65-7.71,99.72-13.75c8.35,3.95,16.77,8.06,25.14,12.32,66.88,34,72.6,69.21,73.16,69.34a4.44,4.44,0,0,0,1.46.27,2.32,2.32,0,0,0,2.47-2.65,10,10,0,0,0-.79-3.44c-2.8-7.94-17.72-26.73-38.26-43-11.67-9.13-32.07-21.77-54.34-33.86q26-3,52-5.52c39.61-3.78,79.32-6.87,119.12-8.87a256.23,256.23,0,0,0-26.39,36.55c-4.36,7.22-6.47,14.46-6.55,20.83C691.7,483,698,491.23,710,491.38a22.33,22.33,0,0,0,4.38-.24c22.09-3,102.94-33.93,135.26-79.25q20.68.18,41.4.71c1,0,4.84-1.46,2.63-1.55Q872.39,410.2,851.13,409.71ZM436.31,379.52l13.8-4.64-3.82,7.81C440,380.57,436.31,379.52,436.31,379.52ZM441.19,436l-.92.13c6-11.36,13.49-26.1,21.17-41.38,20.2,7.37,45.44,17.61,71.92,29.74Q487.13,429.5,441.19,436Zm307.52-40.8,0,1.51c-.07,4.85.9,8.65,3.22,11,0,0,1.58-.74,1.78-7.41,0-1.81,2.57-7.54,6.37-15.22a340.82,340.82,0,0,1,40.79-31,184.33,184.33,0,0,1,44.7-20.49,51.58,51.58,0,0,1,1.81,8.05,86.26,86.26,0,0,1,.74,12c-.24,18.81-7,38.28-20.38,55.72q-32.94-.43-65.94.11c-9.32.15-18.64.4-28,.69C738.52,405.06,743.54,400.05,748.71,395.18ZM811,426.9c-28.14,24.34-78.49,56.13-99.24,55.87H711c-8.86-.57-12.84-5.17-12.74-12.75.12-9.54,6.81-23.55,18.12-39.17a212.5,212.5,0,0,1,13.71-16.71c11.13-.53,22.26-1,33.4-1.35q31.15-1,62.25-1A121.34,121.34,0,0,1,811,426.9Z"/><path class="cls-2" d="M904.87,410.55h-3.6c-1,0-2.52.77-2.68,1.89s1.32,1.47,2.2,1.47h3.61c1,0,2.52-.77,2.68-1.89S905.75,410.55,904.87,410.55Z"/></svg>