<?xml version="1.0" encoding="iso-8859-1"?>
<svg id="Layer_1" data-name="Layer 1" xmlns="http://www.w3.org/2000/svg" viewBox="0 0 1008 720"><defs><style>.cls-1{fill:none;}</style></defs><title>Logo Black</title><path class="cls-1" d="M611.13,492a3.77,3.77,0,0,0-1-2.67,4,4,0,0,0-3.08-1h-6.31v7.53h5.6a7.15,7.15,0,0,0,2.85-.45,2.79,2.79,0,0,0,1.39-1.3A4.41,4.41,0,0,0,611.13,492Z"/><path class="cls-1" d="M304.58,494.4a5.16,5.16,0,0,0,.59-2.43,4.47,4.47,0,0,0-1.14-3.15,4.7,4.7,0,0,0-3.6-1.23h-7v8.94h6.31a7.87,7.87,0,0,0,3.14-.51A3.56,3.56,0,0,0,304.58,494.4Z"/><path class="cls-1" d="M372.51,489a8.71,8.71,0,0,0-3.49-.48h-3.95v19.23h4a8.81,8.81,0,0,0,3.17-.45,4.17,4.17,0,0,0,1.71-1.19,8.61,8.61,0,0,0,1.48-3.16,19.48,19.48,0,0,0,.56-5,14.27,14.27,0,0,0-1.07-6.2A5.59,5.59,0,0,0,372.51,489Z"/><path class="cls-1" d="M549.72,488.7a9.51,9.51,0,0,0-2.51-.2h-5v8.24h5a4.7,4.7,0,0,0,3.51-1.06,4.48,4.48,0,0,0,1-3.15,4.94,4.94,0,0,0-.61-2.55A2.65,2.65,0,0,0,549.72,488.7Z"/><path class="cls-1" d="M519.19,489.11a5.6,5.6,0,0,0-3.52-1.2,6.1,6.1,0,0,0-4.82,2.36c-1.38,1.6-2.08,4.37-2.08,8.25a11.73,11.73,0,0,0,2,7.26,5.91,5.91,0,0,0,9.72,0c1.33-1.76,2-4.33,2-7.63a15.81,15.81,0,0,0-.87-5.51A7.71,7.71,0,0,0,519.19,489.11Z"/><path class="cls-1" d="M268.78,487.44a39.3,39.3,0,0,1-1.2,5.16l-2.43,7.93h7.51L270.35,493Q269.28,489.64,268.78,487.44Z"/><path class="cls-1" d="M168,310.86C78.65,333.49,21.2,435.65,21.2,483.69,21.2,499.17,27,509,39.6,509A33.43,33.43,0,0,0,48,507.78c30.41-8.21,92.46-135.38,107.05-167.54S164,320.26,168,310.86Z"/><path class="cls-1" d="M669.92,340.11c0-.66-.34-1.19-1-1.19a1.07,1.07,0,0,0-.56.13c-2.8.93-5.83,5.16-5.83,5.16C668,344.08,669.92,341.56,669.92,340.11Z"/><path class="cls-1" d="M149.37,488.55a6.32,6.32,0,0,0-4-1.35,6.87,6.87,0,0,0-5.36,2.61q-2.24,2.61-2.24,8.71a12.39,12.39,0,0,0,2.15,7.69,6.63,6.63,0,0,0,10.85,0c1.43-1.9,2.14-4.58,2.14-8.06a16.5,16.5,0,0,0-.91-5.76A8.34,8.34,0,0,0,149.37,488.55Z"/><path class="cls-1" d="M450.11,375.71l-13.8,4.63s3.7,1.06,10,3.17Z"/><path class="cls-1" d="M440.27,436.93l.92-.13q45.92-6.48,92.17-11.51c-26.48-12.13-51.72-22.37-71.92-29.73C453.76,410.83,446.24,425.58,440.27,436.93Z"/><path class="cls-1" d="M902.19,344.61a3.44,3.44,0,0,0-1.24-.14c-1.45,0-3.14.67-4.93,2.92-3.37,4.36-5.39,9.39-5.39,11.51,0,.53.11.79.34.93h.11c1,0,7.52-5.83,13.8-11.65A6.28,6.28,0,0,0,902.19,344.61Z"/><path class="cls-1" d="M908,348.18l-1.79,1.72c.11.4.11.79.22,1.06C907,350,907.57,349.11,908,348.18Z"/><path class="cls-1" d="M730.09,415a214.35,214.35,0,0,0-13.71,16.71c-11.31,15.62-18,29.63-18.12,39.18-.1,7.57,3.88,12.17,12.74,12.74h.79c20.75.27,71.1-31.52,99.24-55.87a120.65,120.65,0,0,0,14.71-15.11q-31.11,0-62.25,1C752.35,414,741.22,414.42,730.09,415Z"/><path class="cls-1" d="M845.55,334.34a184,184,0,0,0-44.7,20.5,339.59,339.59,0,0,0-40.79,31c-3.8,7.68-6.35,13.41-6.37,15.23-.2,6.66-1.78,7.4-1.78,7.4-2.32-2.3-3.29-6.1-3.22-11l0-1.52c-5.17,4.87-10.19,9.88-14.89,14.9,9.32-.29,18.64-.54,28-.69q33-.56,65.94-.11c13.39-17.44,20.14-36.91,20.38-55.72a86,86,0,0,0-.74-12A51.71,51.71,0,0,0,845.55,334.34Z"/><path class="cls-1" d="M600.58,340.11c0-.66-.34-1.19-1-1.19a1.07,1.07,0,0,0-.56.13c-2.81.93-5.84,5.16-5.84,5.16C598.67,344.08,600.58,341.56,600.58,340.11Z"/><path d="M989.6,292.86a6.29,6.29,0,0,0-3.37-1.32,6.46,6.46,0,0,0-3.82,1.72s-7.74,12.31-9.31,15.35a27.34,27.34,0,0,1-4.82,6.49c-2.36,2.78-4,8.2-8.19,14-2.14,3-7.48,11.63-11.92,19.26-4.53,3.61-14.2,11.05-16.92,11.05-.11,0-.23-.13-.34-.13a1.09,1.09,0,0,1-.56-1.06c0-3.18,6.17-12,8.87-13.77a4.38,4.38,0,0,1,1.9-.79h.34a3.65,3.65,0,0,1,.22,1.06,3.45,3.45,0,0,1-2,2.91,4.72,4.72,0,0,0,1.58.27,2.85,2.85,0,0,0,3-2.52,8.28,8.28,0,0,0,.22-2.25c0-3.44-2-5.42-4.94-5.42-3.7,0-8.86,3-13.24,10-1.91,3.18-2.8,5.83-2.8,8.08a8.71,8.71,0,0,0,.16,1.65c4.22-4.54,7.59-8.47,9.94-10.79l1.12.53c0,.05-4.35,5.47-10.31,12.26a5.79,5.79,0,0,0,5.15,2.83h.33c3.39-.17,11.37-6.57,16.64-11.13-3,5.21-5.19,9.49-5.19,10.47v.13c.45,1.46,1.34,4.5,3.59,4.5a3.75,3.75,0,0,0,1.57-.4c3.48-1.85,14.81-22,19.41-24a2.71,2.71,0,0,1,1.35-.26c.67,0,.89.26.89.92,0,1.85-2.91,5.83-8.86,8.34a10.09,10.09,0,0,0-1.68,5.16,5.62,5.62,0,0,0,1.79,4.1,2.52,2.52,0,0,0,1.8.53c6.95,0,27-13.76,27-13.76l-.79-.66s-12.56,7.54-17.5,9a17.71,17.71,0,0,1-5.05.92c-1.57,0-2.47-.53-2.58-1.72,0-2.11,15.26-8.73,15.71-14.42v-.4c0-2.12-1.35-3-3.48-3-3.37,0-8.42,2.38-12.68,6.75,0,0,20.2-34,24.13-38.25,2.8-3.17,4.93-4.23,6-4.23a.83.83,0,0,1,.79.39s0,.14.11.14v-.53C993,299.48,992.29,294.85,989.6,292.86Z"/><polygon points="687.71 307.96 680.29 307.96 673.57 316.25 678.38 316.25 687.71 307.96"/><path d="M187,307c5.16-.79,5.5-1.32,9.31-1.32,2.25,0,5.61.13,11.9.53,17.05,1.19,27,6.62,27,6.62s-1.91-5-13.24-7.55c-7.3-1.58-12.57-2.78-19.53-2.78a103.33,103.33,0,0,0-14.14,1.2c11-26.74,16.39-45,16.39-61.67a74.35,74.35,0,0,0-1.35-14.16c-2.24-11.78-12-16.68-25.69-16.68-47.58,0-143.07,59.29-143.07,103.49A27.51,27.51,0,0,0,39,329.79a5.6,5.6,0,0,0,2.58-4.37V325c-.11-2.12-4.6-5.29-4.6-7.67v-.14c1.46-49,92.23-100,133.86-100,9.31,0,16.16,2.51,19,8.2a20.59,20.59,0,0,1,1.8,9.4c0,15.22-9,41-22.11,72.39C82.69,327.93,15,434.33,15,489.65c0,19.05,8,32,25.92,33.34.56,0,1.23.14,1.9.14,33.22,0,75-68.82,102.11-123.07C172.68,344.61,176,333.36,187,307ZM48,507.78A33.43,33.43,0,0,1,39.6,509c-12.57,0-18.4-9.8-18.4-25.28,0-48,57.45-150.2,146.76-172.83-3.92,9.4,1.69-2.91-12.9,29.38S78.42,499.57,48,507.78Z"/><path d="M278.26,324.36a2.5,2.5,0,1,0,4.94,0,2.5,2.5,0,1,0-4.94,0Z"/><path d="M303.73,344H304a.12.12,0,0,1,.11.13c0,1.32-5.16,9.79-5.16,15.08a4.83,4.83,0,0,0,.78,2.92,2.13,2.13,0,0,0,1.8.66c6.4,0,23.56-14.69,23.67-15.22,0-.13,0-.13-.11-.13-.56,0-3.36,1.85-8.53,5.69-4.82,3.7-8,5.29-9.31,5.29a.8.8,0,0,1-.56-.26V358c0-1.19,8.08-13,8.08-17.33a2,2,0,0,0-.11-.8,4.12,4.12,0,0,0-3.82-2.78c-2,0-4.6,1.2-8,4-6.4,5.43-12.35,10.72-12.35,10.72s8.76-11.64,8.76-14.55v-.27c-.45-1.19-2.47-1.85-4.61-1.85s-4.37.66-5.27,2.51c0,0-2.78,4.58-5.58,9.79h0s-21.21,17.2-22.78,17.86c-.11,0-.11,0-.11-.13,0-1.46,14.81-22.63,15.93-24.09s2.14-2.51,2.14-2.51-1.69-5.29-5.05-5.29a4.15,4.15,0,0,0-2.25.79S266.25,341.54,261,350c-3,2.46-7.91,6.37-13.62,10.27s-10.33,7.15-11.9,7.15c-.33,0-.45-.13-.45-.53a3.56,3.56,0,0,1,.56-1.72c2.92-5.69,20.09-33.75,30.08-48.7,8.52-.79,17.95-1.46,23.67-1.46a22.09,22.09,0,0,1,3.26.14c8.3.79,10.77,5.42,10.77,5.42h.45a5,5,0,0,0,2.35-.53c1.57-.79,5.39-6.48,5.39-9.13a1.85,1.85,0,0,0-.45-1.19,7.84,7.84,0,0,0-2.58-.26c-7,0-26.37,1.85-40.17,3,1.57-2.25,2.92-4,3.7-4.9,4.6-4.76,6-4,8.3-6.22a3.89,3.89,0,0,0,.9-2.78c0-3-2-7-5.61-7a2.73,2.73,0,0,0-1,.13s-3.59,0-7.52,6.09-4.82,6.88-6.95,10.32l-3.26,5.3c-1.12,0-2,.13-2.69.13h-9.76c-8.08,0-16.94.13-18.4,1.72a5.38,5.38,0,0,0-1,3.7,22.36,22.36,0,0,0,.67,5,1.4,1.4,0,0,0,.79.27c.44,0,1.12-.27,1.9-1.33,1.46-2,6.17-3.57,8.53-3.83a84.46,84.46,0,0,1,10.66-1.33c1.23,0,3.7-.13,6.85-.39-6.27,10.18-11.74,19.24-18.43,30.52l-11.65,5.47c-1-2.46-3.15-3-4.05-5.23l1-.59h-1.23a6.72,6.72,0,0,1-.23-1.85v-.27c0-2.65,1-3.44,2.24-3.44,1.57,0,3.59,1.59,3.59,1.59,1.68-1.19,3-4.77,3-7.68,0-2-.67-3.7-2.13-4h-.79c-3.81,0-10.55,3.58-11.67,10.19a7.74,7.74,0,0,0-.11,1.59,11.78,11.78,0,0,0,2,6.18c-3.87,2.22-9.24,5.25-9.87,5.33-.12,0-.12,0-.12-.13,0-1.32,6.18-10.85,6.85-10.85h.11c.11,0,.11-.13.11-.26a5.74,5.74,0,0,0-2.13-2.78,3.73,3.73,0,0,0-2.35-.93,2.41,2.41,0,0,0-1.91.79,58.66,58.66,0,0,0-3.48,5c-4.94,3.84-12.12,9.13-12.79,9.13v-.13c0-1.19,7.74-13.5,8.64-13.5a2.18,2.18,0,0,1,1.34.53s-.11-4-2.46-6.08a3.89,3.89,0,0,0-2.7-1.2,2.64,2.64,0,0,0-2.13,1.2s-12.79,18.92-12.79,23.15v.4c.45,1.46,1.12,2.25,2.24,2.25,1.46,0,3.48-1.19,6.4-3.31,3.14-2.25,8.3-6.08,11.89-8.86-1.79,3.17-3.47,6.35-3.47,7.94,0,.26.11.39.11.53.56,1.72,1.46,2.91,3,2.91,1.34,0,3.14-.93,5.83-3.31a85.42,85.42,0,0,1,10.05-7.26,22,22,0,0,0,4.2,4.48s-3.25.66-8.64,5c-2.92,2.38-4.15,4.63-4.15,6.09a1.72,1.72,0,0,0,1.91,1.72h.56c3.25-.53,13.8-1.59,14.58-9.93v-1.06a11.4,11.4,0,0,0-.22-2.25l10.57-5.41c-1,1.66-2,3.37-3.05,5.15-1.46,2.64-4.6,9.79-4.6,11.51v.13c.33,2.78-.23,6.09,3.25,6.09a7.33,7.33,0,0,0,2.25-.26c8-1.88,18-10.29,25-17.1-3.77,6.45-6.86,12.71-6.86,15.9a2.37,2.37,0,0,0,.45,1.59,1.63,1.63,0,0,0,1.35.53c5.67,0,22.89-16.51,29.48-23.05-2.43,4.67-4.57,9.41-4.57,11.54a1.14,1.14,0,0,0,.33.93,7.59,7.59,0,0,0,4.83,1.85h.34S301.6,344.87,303.73,344Z"/><path d="M584,360.36c0-1.59,1.57-4.9,7.18-12.58,0,0,10.66-.53,12.57-6.75a6.63,6.63,0,0,0,.23-1.45c0-2.52-2.14-4.63-5.39-4.63-3.82,0-9.31,2.91-15,11.11-4.48,6.49-6.06,11.25-6.06,14.43,0,3.57,2.14,5.16,4.38,5.16a5.38,5.38,0,0,0,2-.4c4-1.82,23.1-14.27,28.3-17.66-2.82,5.26-5.64,11.12-5.64,13.56a1.14,1.14,0,0,0,.34.93,7.58,7.58,0,0,0,4.83,1.85H612s18.07-19.06,20.2-20h.22a.12.12,0,0,1,.12.13c0,1.32-5.16,9.79-5.16,15.08a4.83,4.83,0,0,0,.78,2.92,2.13,2.13,0,0,0,1.8.66c4.52,0,14.44-7.36,19.89-11.84-2.21,4.08-3.06,7.26-3.06,9.59,0,3.57,2.13,5.16,4.37,5.16a5.35,5.35,0,0,0,2-.4c4.6-2.12,29.63-18.53,29.63-18.53l-1.46-.13s-25.25,15.22-26.93,15.22a1.29,1.29,0,0,1-1.13-1.45c0-1.59,1.58-4.9,7.19-12.58,0,0,10.66-.53,12.56-6.75a6.08,6.08,0,0,0,.23-1.45c0-2.52-2.13-4.63-5.39-4.63-3.81,0-9.31,2.91-15,11.11-.64.92-1.21,1.79-1.73,2.64-1.42.94-3.45,2.39-6.13,4.38-4.82,3.7-8,5.29-9.31,5.29a.78.78,0,0,1-.56-.26V358c0-1.19,8.08-13,8.08-17.33a1.86,1.86,0,0,0-.12-.8,4.1,4.1,0,0,0-3.81-2.78c-2,0-4.6,1.2-8,4-6.39,5.43-12.34,10.72-12.34,10.72s8.75-11.64,8.75-14.55v-.27c-.45-1.19-2.47-1.85-4.6-1.85s-4.37.66-5.27,2.51c0,0-2.53,4.16-5.19,9.06l-.65-.06s-25.24,15.22-26.93,15.22A1.28,1.28,0,0,1,584,360.36Zm15-21.31a1.07,1.07,0,0,1,.56-.13c.67,0,1,.53,1,1.19,0,1.45-1.91,4-7.41,4.1C593.17,344.21,596.2,340,599,339.05Zm69.34,0a1.07,1.07,0,0,1,.56-.13c.67,0,1,.53,1,1.19,0,1.45-1.91,4-7.4,4.1C662.52,344.21,665.55,340,668.35,339.05Z"/><path d="M851.13,410.53c12-17.76,18-37.07,18.27-54.21a62.5,62.5,0,0,0-5-26.44c8.33-2.16,6.64-1.58,28.56-4.18a65.56,65.56,0,0,1,9.21-.49c18.51.24,34.92,7,36.59,8.05,1.89.94.73,4.1,2.08,4.12h.45a1.88,1.88,0,0,0,1.48-1.8,5.54,5.54,0,0,0-1.64-3.21c-2.11-2.3-14.59-8.82-32-9.65-2.36-.18-4.83-.22-7.3-.25A160.6,160.6,0,0,0,863,327c-6.57-12.52-18.13-21.3-34.38-23,0,0,33-5.79,41.3-35.39a36.13,36.13,0,0,0,1.36-9.84c.36-27.58-28-59.47-83.38-60.18l-2.47,0c-63.86.39-85.51,26.49-95.56,48.18-3.46,7.54-5.15,16.76-5.26,25.86-.22,16.82,4.61,33.55,11.49,40a67.56,67.56,0,0,1-9.42-35.44,68.52,68.52,0,0,1,6.65-28.26c14.88-31.79,53.15-41.15,80.87-40.8,2.69,0,5.27.22,7.73.41C809.66,210.8,835.76,223,845.12,237c5.28,7.95,7.07,17.21,7,25.25-.08,5.91-1.27,11.2-2.76,14.36-3.58,7.38-17.75,18.87-26.66,22.09-5.52,2-7.69,4.6-7.71,6.27,0,.91.76,1.67,2,1.84,3.24.5,20.47,4.66,27.73,24.76-26.47,7.54-42,18.11-64.39,33.73-5.55,3.87-10.76,7.75-15.75,11.78,10.57-19.72,26-46.05,34.63-58.22,13.83-19.53,28.23-39.65,30.74-42.95a4.4,4.4,0,0,0,.71-2.57c0-3.94-2.67-10.49-7.39-10.55a8,8,0,0,0-5,2.21s-22.63,31.69-40,59.35c-11.91,18.8-25.28,46.51-28.67,65.42a291.66,291.66,0,0,0-21.17,21.27c-43,1.44-86,4.2-128.82,7.81q-28.07,2.37-56.07,5.32c-14-7.31-28.38-14.18-41.45-19.64-14.25-6-27.15-10.86-37.81-14.69,3.7-7.41,7.4-14.83,11-21.84,24.24-6.88,78.88-18.53,110.75-50.95,12.68-13,20.31-30.17,20.31-47.37,0-32.43-27.38-64.85-100-68.16-5.05-.26-10-.26-14.81-.26-100.76,0-147.44,47.24-160.68,65.9-7.85,11-10.43,24.88-10.43,35.47,0,8.07,1.57,14.16,3.48,15.08a43,43,0,0,1-1.57-12.3c0-16.94,7.85-48.44,58.45-75.17,31.42-16.67,67.33-23.42,100-23.42,43.87,0,82.14,12,96.61,27.92a47.71,47.71,0,0,1,12.34,32.42c0,27.79-22.55,61.14-81.23,82.05,0,0-15.71,5.16-28.73,9.79,9.09-18.26,11.89-24.08,19.86-39.17,3.82-7.28,12.34-18.13,12.34-25.94a7.36,7.36,0,0,0-1.34-4.63c-3.48-4.76-6.62-6.35-9.43-6.35-4.71,0-7.85,4.5-7.85,4.5-4.15,8.07-23,46.45-40.51,82.71-4.49.92-10.21,2.25-17.73,4a60.42,60.42,0,0,1-14.25,2c-10.66,0-16.38-4.5-39.72-7.41-2.58-.26-4.94-.39-7-.39-11,0-15,4-15,8.46,0,5,5.16,10.72,11.33,11.91a25.92,25.92,0,0,0,4.71.4c12.12,0,29-6.09,41.86-6.09h1.9c4.27.27,12.91,2.52,24.58,6.36-12.57,26.2-22.78,47.9-23.34,50.28a1.7,1.7,0,0,0,0,.22c-39.81,5.87-79.48,12.46-118.71,20.39a7,7,0,0,0-1.08.15h-.18a5.83,5.83,0,0,0-5,2.27,4.55,4.55,0,0,0,1,7.59,5.7,5.7,0,0,0,4.67,1.81c5.55-.57,11.15-.21,16.71-.71,3.26-.29,6-2,6-4.84a2.7,2.7,0,0,0,0-.49c32.37-6.69,65-12.51,97.79-17.84,1.77,5.07,4.87,9.85,6.64,10.12.62,0,3.43-4.71,7.61-12.4,3.19-.51,6.39-1,9.58-1.51q49.65-7.72,99.72-13.76c8.35,3.95,16.77,8.07,25.14,12.32,66.88,34,72.6,69.21,73.16,69.35a4.59,4.59,0,0,0,1.46.26,2.32,2.32,0,0,0,2.47-2.65,10,10,0,0,0-.79-3.44c-2.8-7.94-17.72-26.73-38.26-43-11.67-9.13-32.07-21.77-54.34-33.85q26-3,52-5.53c39.61-3.78,79.32-6.86,119.12-8.86a256.22,256.22,0,0,0-26.39,36.54c-4.36,7.22-6.47,14.47-6.55,20.83-.14,11.22,6.15,19.48,18.15,19.64a23.18,23.18,0,0,0,4.38-.25c22.09-3,102.94-33.93,135.26-79.25q20.68.18,41.4.71c1,0,4.84-1.46,2.63-1.55Q872.39,411,851.13,410.53ZM436.31,380.34l13.8-4.63-3.82,7.8C440,381.4,436.31,380.34,436.31,380.34Zm4.88,56.46-.92.13c6-11.35,13.49-26.1,21.17-41.37,20.2,7.36,45.44,17.6,71.92,29.73Q487.13,430.31,441.19,436.8ZM811,427.72c-28.14,24.35-78.49,56.14-99.24,55.87H711c-8.86-.57-12.84-5.17-12.74-12.74.12-9.55,6.81-23.56,18.12-39.18A214.35,214.35,0,0,1,730.09,415c11.13-.53,22.26-1,33.4-1.34q31.15-1,62.25-1A120.65,120.65,0,0,1,811,427.72Zm16.69-17.62q-32.94-.44-65.94.11c-9.32.15-18.64.4-28,.69,4.7-5,9.72-10,14.89-14.9l0,1.52c-.07,4.85.9,8.65,3.22,11,0,0,1.58-.74,1.78-7.4,0-1.82,2.57-7.55,6.37-15.23a339.59,339.59,0,0,1,40.79-31,184,184,0,0,1,44.7-20.5,51.71,51.71,0,0,1,1.81,8.06,86,86,0,0,1,.74,12C847.86,373.19,841.11,392.66,827.72,410.1Z"/><path d="M933.61,346.72c-2.35,2.32-5.72,6.25-9.94,10.79a140.42,140.42,0,0,1-21.26,19.25c2.81-8.86,18.74-34.67,18.74-34.8V341c0-3.17-1.46-5.69-3.48-5.69-1.23,0-2.58.93-3.81,3.18,0,0-.79,1.32-2,3.31-1.91,1.72-4,3.7-6.29,5.69-1-3.57-2.8-7.94-5.38-9.93l-.11-.13a7,7,0,0,0-4.15-1.32,10.18,10.18,0,0,0-3.26.53c-7.74,2.64-13.13,16.8-13.13,22.76v.26c0,5.43,3.37,7.28,5.73,7.28h.67c2.47-.53,11.44-8.6,17.05-14l2.7-2.51c.11.4.22.79.33,1.32-6.39,11.12-14.47,26.21-14.47,32.16a2.87,2.87,0,0,0,.67,2.12,2.78,2.78,0,0,0,1.46.4c6,0,20.68-15.43,30.76-26.92,6-6.79,10.31-12.21,10.31-12.26Zm-42.53,13.11H891c-.23-.14-.34-.4-.34-.93,0-2.12,2-7.15,5.39-11.51,1.79-2.25,3.48-2.92,4.93-2.92a3.44,3.44,0,0,1,1.24.14,6.28,6.28,0,0,1,2.69,3.57C898.6,354,892.09,359.83,891.08,359.83ZM908,348.18c-.45.93-1,1.85-1.57,2.78-.11-.27-.11-.66-.22-1.06Z"/><path d="M119.31,497.39a26,26,0,0,0-4.91-1.72c-2.38-.66-3.86-1.3-4.42-1.93a3.4,3.4,0,0,1-.86-2.39,3.83,3.83,0,0,1,1.22-2.87,5.38,5.38,0,0,1,3.87-1.19,5.24,5.24,0,0,1,3.86,1.31,6,6,0,0,1,1.54,3.87l2.81-.26a9.47,9.47,0,0,0-1.09-4.26,6.66,6.66,0,0,0-2.89-2.84,9.35,9.35,0,0,0-4.35-1,8.91,8.91,0,0,0-4.06.92,6.39,6.39,0,0,0-2.79,2.7,8,8,0,0,0-.95,3.83,7.17,7.17,0,0,0,.78,3.36,6.62,6.62,0,0,0,2.37,2.52,17.81,17.81,0,0,0,4.27,1.68,35.21,35.21,0,0,1,4,1.32,4.45,4.45,0,0,1,2,1.6,4,4,0,0,1,.61,2.22,4.46,4.46,0,0,1-.63,2.31,4.25,4.25,0,0,1-1.91,1.67,7,7,0,0,1-3,.61,7.06,7.06,0,0,1-3.4-.81,5.23,5.23,0,0,1-2.23-2.1,8.48,8.48,0,0,1-.92-3.32l-2.76.29a10.59,10.59,0,0,0,1.21,4.86,7.6,7.6,0,0,0,3.19,3.21,10.68,10.68,0,0,0,5,1.07,8.56,8.56,0,0,0,4.27-1.06,7.1,7.1,0,0,0,2.91-3,8.52,8.52,0,0,0,1-4.07,7.74,7.74,0,0,0-.92-3.84A7.16,7.16,0,0,0,119.31,497.39Z"/><path d="M150.94,485.91a9.53,9.53,0,0,0-13.18,2c-2,2.53-3,6.05-3,10.53a18,18,0,0,0,1.27,6.75,11.3,11.3,0,0,0,3.73,5,9.08,9.08,0,0,0,5.59,1.84,9.48,9.48,0,0,0,5.38-1.66,10.74,10.74,0,0,0,3.86-4.92,20.73,20.73,0,0,0,.06-14.61A11.11,11.11,0,0,0,150.94,485.91Zm-.12,20.28a6.63,6.63,0,0,1-10.85,0,12.39,12.39,0,0,1-2.15-7.69q0-6.11,2.24-8.71a6.87,6.87,0,0,1,5.36-2.61,6.32,6.32,0,0,1,4,1.35,8.34,8.34,0,0,1,2.68,3.82,16.5,16.5,0,0,1,.91,5.76C153,501.61,152.25,504.29,150.82,506.19Z"/><polygon points="168.51 511.62 171.45 511.62 171.45 499.35 181.84 499.35 181.84 496.16 171.45 496.16 171.45 487.79 183.46 487.79 183.46 484.6 168.51 484.6 168.51 511.62"/><polygon points="194.21 487.79 201.51 487.79 201.51 511.62 204.44 511.62 204.44 487.79 211.77 487.79 211.77 484.6 194.21 484.6 194.21 487.79"/><path d="M243.43,502q-.68,3.33-1.1,5.88a87.2,87.2,0,0,0-1.72-9.56l-3.18-13.68H233.9l-4.22,18.25c-.1.44-.43,2.11-1,5q-.39-2.74-.94-5.53l-3.37-17.71h-3l5.88,27h3l4.7-20.59c.2-.87.42-1.93.65-3.17.07.4.3,1.45.69,3.17L241,511.62h2.83l6.08-27h-3Z"/><path d="M267.27,484.6l-8.51,27h3.11l2.43-8.18h9.27l2.58,8.18h3.34l-9.06-27Zm-2.12,15.93,2.43-7.93a39.3,39.3,0,0,0,1.2-5.16q.51,2.19,1.57,5.6l2.31,7.49Z"/><path d="M303.72,500.67a7.38,7.38,0,0,0-1.77-1.34,7.18,7.18,0,0,0,4.72-2.51,7.72,7.72,0,0,0,1.52-4.85,8.92,8.92,0,0,0-.92-4.07,5.27,5.27,0,0,0-2.46-2.57,10.85,10.85,0,0,0-4.51-.73h-9.82v27h2.93v-12h3.4a7.73,7.73,0,0,1,1.64.13,4.25,4.25,0,0,1,1.33.72,7.54,7.54,0,0,1,1.49,1.81c.56.86,1.26,2.1,2.12,3.72l2.93,5.62H310l-3.86-7.35A17.9,17.9,0,0,0,303.72,500.67Zm-4-4.14h-6.31v-8.94h7a4.7,4.7,0,0,1,3.6,1.23,4.47,4.47,0,0,1,1.14,3.15,5.16,5.16,0,0,1-.59,2.43,3.56,3.56,0,0,1-1.72,1.62A7.87,7.87,0,0,1,299.72,496.53Z"/><polygon points="324.38 499.24 336.64 499.24 336.64 496.07 324.38 496.07 324.38 487.79 337.47 487.79 337.47 484.6 321.45 484.6 321.45 511.62 337.98 511.62 337.98 508.44 324.38 508.44 324.38 499.24"/><path d="M376.77,486.43a7.79,7.79,0,0,0-3.57-2.12,15.59,15.59,0,0,0-4.13-.42h-8.34v28.44h8.7a13.08,13.08,0,0,0,3.76-.49,8.23,8.23,0,0,0,2.89-1.48,10.14,10.14,0,0,0,2.18-2.64,15.48,15.48,0,0,0,1.59-4.13,23.85,23.85,0,0,0,.61-5.63,22.53,22.53,0,0,0-.9-6.63A12.07,12.07,0,0,0,376.77,486.43Zm-1.31,16.5a8.61,8.61,0,0,1-1.48,3.16,4.17,4.17,0,0,1-1.71,1.19,8.81,8.81,0,0,1-3.17.45h-4V488.5H369a8.71,8.71,0,0,1,3.49.48,5.59,5.59,0,0,1,2.44,2.73,14.27,14.27,0,0,1,1.07,6.2A19.48,19.48,0,0,1,375.46,502.93Z"/><polygon points="396.09 499.94 408.34 499.94 408.34 495.36 396.09 495.36 396.09 488.5 409.17 488.5 409.17 483.89 391.74 483.89 391.74 512.33 409.69 512.33 409.69 507.73 396.09 507.73 396.09 499.94"/><path d="M430,504c-.18.58-.35,1.17-.51,1.75-.15-.57-.32-1.15-.49-1.74l-5.91-20.14h-4.67l9,28.44h4l9.13-28.44h-4.49Z"/><polygon points="454.57 499.94 466.83 499.94 466.83 495.36 454.57 495.36 454.57 488.5 467.66 488.5 467.66 483.89 450.23 483.89 450.23 512.33 468.18 512.33 468.18 507.73 454.57 507.73 454.57 499.94"/><polygon points="483.64 483.89 479.29 483.89 479.29 512.33 494.55 512.33 494.55 507.73 483.64 507.73 483.64 483.89"/><path d="M521.6,485.34a10.22,10.22,0,0,0-14.15,2.15c-2.07,2.66-3.12,6.35-3.12,11a19,19,0,0,0,1.32,7,12.23,12.23,0,0,0,4,5.34,9.86,9.86,0,0,0,6,2,10.2,10.2,0,0,0,5.77-1.79,11.34,11.34,0,0,0,4.11-5.22,19.65,19.65,0,0,0,1.42-7.63,19.88,19.88,0,0,0-1.35-7.52A11.78,11.78,0,0,0,521.6,485.34Zm-1.1,20.42a5.91,5.91,0,0,1-9.72,0,11.73,11.73,0,0,1-2-7.26c0-3.88.7-6.65,2.08-8.25a6.1,6.1,0,0,1,4.82-2.36,5.6,5.6,0,0,1,3.52,1.2,7.71,7.71,0,0,1,2.44,3.51,15.81,15.81,0,0,1,.87,5.51C522.5,501.43,521.83,504,520.5,505.76Z"/><path d="M553.53,485.58a6.68,6.68,0,0,0-3-1.41,16.73,16.73,0,0,0-3.52-.28H537.9v28.44h4.35v-11h5c3.36,0,5.73-.9,7.07-2.67a10.14,10.14,0,0,0,1.94-6.26,10.52,10.52,0,0,0-.73-3.95A7.23,7.23,0,0,0,553.53,485.58Zm-2.75,10.1a4.7,4.7,0,0,1-3.51,1.06h-5V488.5h5a9.51,9.51,0,0,1,2.51.2,2.65,2.65,0,0,1,1.46,1.28,4.94,4.94,0,0,1,.61,2.55A4.48,4.48,0,0,1,550.78,495.68Z"/><polygon points="571.55 499.94 583.81 499.94 583.81 495.36 571.55 495.36 571.55 488.5 584.64 488.5 584.64 483.89 567.21 483.89 567.21 512.33 585.15 512.33 585.15 507.73 571.55 507.73 571.55 499.94"/><path d="M610.9,500.2a5.2,5.2,0,0,0-.58-.56,7.15,7.15,0,0,0,3.57-2.39,8.39,8.39,0,0,0,1.67-5.28,9.76,9.76,0,0,0-1-4.39,6.1,6.1,0,0,0-2.8-2.89,11.37,11.37,0,0,0-4.8-.8H596.44v28.44h4.34v-12h2.7a6.59,6.59,0,0,1,1.42.1,3.37,3.37,0,0,1,1.11.6,6.94,6.94,0,0,1,1.33,1.63c.54.84,1.24,2.08,2.08,3.67l3.13,6h5.29l-4.4-8.39A18.9,18.9,0,0,0,610.9,500.2Zm-1.67-4.83a7.15,7.15,0,0,1-2.85.45h-5.6v-7.53h6.31a4,4,0,0,1,3.08,1,3.77,3.77,0,0,1,1,2.67,4.41,4.41,0,0,1-.51,2.1A2.79,2.79,0,0,1,609.23,495.37Z"/><path d="M904.87,411.38h-3.6c-1,0-2.52.77-2.68,1.88s1.32,1.47,2.2,1.47h3.61c1,0,2.52-.77,2.68-1.88S905.75,411.38,904.87,411.38Z"/></svg>