<?xml version="1.0" encoding="iso-8859-1"?>
<svg id="Layer_1" data-name="Layer 1" xmlns="http://www.w3.org/2000/svg" viewBox="0 0 1008 720"><defs><style>.cls-1,.cls-2{fill:#fff;}.cls-2{stroke:#fff;stroke-miterlimit:10;stroke-width:2px;}</style></defs><title>Logo White 2</title><polygon class="cls-1" points="661.68 331.82 654.04 331.82 647.12 340.35 652.07 340.35 661.68 331.82"/><path class="cls-1" d="M331,355.38a11.61,11.61,0,0,0-2.93,3.41c0,1,.79,1.95,2.39,2.85a11.38,11.38,0,0,0,4.57,1.55c1,0,2.25-.67,3.75-2a33,33,0,0,0,4.09-4.36,14.46,14.46,0,0,0,2.26-3.55,2.74,2.74,0,0,0-.89-2.6,5.65,5.65,0,0,0-3.07-1.4c-1.09,0-2.64.64-4.64,1.9A40.19,40.19,0,0,0,331,355.38Z"/><path class="cls-1" d="M418.45,387.25a2,2,0,0,0-1.84,1.05,46.07,46.07,0,0,1-6.62,7.86,92.26,92.26,0,0,1-10.71,9.3q-5.73,4.26-9.69,4.45a4,4,0,0,1-4-3.9,87.11,87.11,0,0,1-.41-13.16q.28-7.35.55-12.75a4.83,4.83,0,0,0,.14-1c.18-5.21-1.12-7.92-3.89-8.16s-6.26,1.55-10.44,5.35a52.57,52.57,0,0,0-5.12,5.56q-2.25,2.85-3.62,4.85v-1a3,3,0,0,0-2.11-3.2,6.9,6.9,0,0,0-4.57-.25,3.51,3.51,0,0,0-2.73,2.95c-.18,1.93-.41,3.77-.68,5.5a62.71,62.71,0,0,1-6.28,9.51c-2.18,2.6-4,4-5.53,4.15s-2.57-1.48-3.2-4.95a59.49,59.49,0,0,1-.07-13.71q.75-7.5,1.7-12.81a2.66,2.66,0,0,0-2.18-2.85,9,9,0,0,0-5-.1,5.51,5.51,0,0,0-3.75,2.65,7.5,7.5,0,0,1-1.23,2.1,7.44,7.44,0,0,0-1.57,3c-.23,1,.34,1.88,1.71,2.75a60.11,60.11,0,0,0-.38,9.2,162.15,162.15,0,0,1-13.13,24.51q-8.19,12.61-17.33,24.62-9.55,12.6-13.58,14t-4.57-5.06a92,92,0,0,1,.68-17.31q2.32-19.6,7.37-43.67t8.73-40q1.63-7.11,2.32-10.31a3.83,3.83,0,0,1,.82-.1,156.53,156.53,0,0,1,15.9-1.55,81.65,81.65,0,0,1,17.53,1.35,6.9,6.9,0,0,0,2.8-.2,19.51,19.51,0,0,0,3.27-1.05,5.48,5.48,0,0,0,2.12-1.3c.36-.43.18-.71-.55-.85a112.94,112.94,0,0,0-21.35-1.4q-11,.3-19.72,1.4,8.19-38.42,13.51-59.33a8.92,8.92,0,0,0-2.12-6.95,13.5,13.5,0,0,0-5.86-4.66q-3.21-1.2-4.17,2-6.68,26.52-16.23,71a149.58,149.58,0,0,1-15.56,1.5A49.78,49.78,0,0,1,254,335a6.13,6.13,0,0,0-3.27.3,4.92,4.92,0,0,0-2.32,1.5c-.46.6-.23,1,.68,1.3a62.49,62.49,0,0,0,16.24,1.66,135.66,135.66,0,0,0,17.33-1.36q-3.83,17.63-7.85,43-.47,3-.87,5.88a16.79,16.79,0,0,0-8.07,2.62,40.86,40.86,0,0,0-7.78,6.36q-3.54,3.69-6.27,7l-1.37,1.6c-.63-1.53-1.32-3.07-2-4.6a52.49,52.49,0,0,1-3.55-8.56,16.9,16.9,0,0,1-.27-9,5.82,5.82,0,0,0-2.39-5.8,10.54,10.54,0,0,0-6.48-2.36A4.38,4.38,0,0,0,231,377.7a28.59,28.59,0,0,0-.41,12.1q-6.56,15.21-10.78,20.71-1-1.89.06-8.7t2.73-13.91q1.71-7.09,2.66-9.7a3.82,3.82,0,0,0-1.09-4.06,6.72,6.72,0,0,0-4-2,3.13,3.13,0,0,0-3.35,1.85,109.05,109.05,0,0,0-4.23,16q-4.36,10.31-8.87,15.81-1.5-1.31-1.22-5.2a49.89,49.89,0,0,1,1.29-8.16q1-4.24,1.71-6.35a4,4,0,0,0-1.78-5.1,9.84,9.84,0,0,0-6.61-1.35,6.22,6.22,0,0,0-5.26,3.65c-.55,1.3-1,2.67-1.48,4.09a165.81,165.81,0,0,0-23.56,3.16q-12.21,2.55-24.49,5.76l-3.41.8a412.4,412.4,0,0,0,14.94-50.28,342.89,342.89,0,0,0,8.32-56.08,188.11,188.11,0,0,0-3.75-53.43q-6.13-24.7-18.22-31.52t-27.36.35q-15.28,7.15-31,24.37A217.55,217.55,0,0,0,49.6,277.14a177.45,177.45,0,0,0-18.42,54.78q-4.44,28.07,6.48,52,3.29,6.11,9.28,7a18.65,18.65,0,0,0,10.92-1.5c3.28-1.56,5-3.5,5-5.8s-2.64-4.32-8.19-6.05q-14.88-22.81-11.8-48.93t16.92-51.43a257.42,257.42,0,0,1,31.73-45.82q13.77-16,26.88-22t22.44.65q9.36,6.64,11.94,28.86,1.92,24.21-4.36,56.33A594.23,594.23,0,0,1,133,357q-9.21,29.73-16.31,46.73-29.06,9.71-58.26,31.92T16.24,480.75Q8.59,496,12.76,505.81T30,517.07q13.11,1.39,32.21-8.91,14.87-8.49,28.18-23.61A208.8,208.8,0,0,0,115,449.43a327.46,327.46,0,0,0,22.24-47.72q13.64-4,27.22-7.16a163.13,163.13,0,0,1,25-3.81,59.82,59.82,0,0,0-1.17,7.22Q187.5,406.21,192,412q3.54,3.71,7.37,2.81a11.82,11.82,0,0,0,6.55-4.31,55.7,55.7,0,0,0,3.14-4.7c.45-.8.9-1.53,1.36-2.2a31.8,31.8,0,0,0,0,7.2c.82,3.4,2.71,5.11,5.66,5.11a10.59,10.59,0,0,0,8-3.91q3.81-5,8.32-15.1,1.63,4.5,3.68,9a95.74,95.74,0,0,1,4.51,12.51q-10.25,17.1-10.37,24.76t5.18,7.56q4.79-.11,10.44-5.51t8.26-14.76q2.58-9.35-1.78-21.16c.46-.6,1-1.26,1.5-2q2.59-3.3,5.87-7.15a40.45,40.45,0,0,1,7.17-6.66,14.2,14.2,0,0,1,6.59-2.71,248.08,248.08,0,0,0-1.89,39.33q.56,14,3.28,21.21t9,5q6.27-2.2,17.33-16.61,9.13-11.81,17.33-24.56a168.67,168.67,0,0,0,9.4-16.64c.16,1,.35,1.92.56,2.88q2.73,8.4,9.69,7.65t12.69-7.45c-.46,1.93-.91,3.94-1.37,6a2,2,0,0,0,1.84,2.6,8.42,8.42,0,0,0,4.85-.7,5.27,5.27,0,0,0,3.27-3.4c.37-1.6.66-2.87.89-3.8a32.1,32.1,0,0,0,.61-3.5c.09-.27.19-.54.28-.8q2.18-4.2,4.64-8c1.09-1.66,2.5-3.6,4.23-5.8a53.6,53.6,0,0,1,5.46-6,21.66,21.66,0,0,1,3.27-2.51c0,1.07-.05,2.11-.14,3.11a77.14,77.14,0,0,1-.81,8.2,101.7,101.7,0,0,0-1.1,19.41c.46,3.4,1.89,5.69,4.3,6.85a13.48,13.48,0,0,0,8.67.75q8.73-2.4,18.28-10.35t13-14.06a1.25,1.25,0,0,0-.35-1.75A3.38,3.38,0,0,0,418.45,387.25ZM97.43,444a251,251,0,0,1-20.12,31.12q-10.44,13.61-23,20.11Q43.26,500.77,37,499T31.66,487q1.64-12.6,13.71-28.31a154.24,154.24,0,0,1,30.5-29.42,138.11,138.11,0,0,1,38.89-20.51A380.28,380.28,0,0,1,97.43,444Zm142-3.55c-1.41,3.63-2.66,5.62-3.75,5.95s-1.46-1.17-.82-4.5,2.91-8.77,6.82-16.31Q241.54,435,239.42,440.48Z"/><path class="cls-1" d="M560.84,420.12a18.68,18.68,0,0,0-4-1.65,10.71,10.71,0,0,0-4.23-.45q-11.05,1.2-23.47-5a225.22,225.22,0,0,1-25.52-14.95q-9.82-6.41-19.78-12.06A93,93,0,0,0,464,377.5c.09-.47.19-.94.28-1.41a234.6,234.6,0,0,0,53.69-14.65q24.63-10.15,42-26.12a86.1,86.1,0,0,0,24.29-37.77q6-21.1,1.23-39.32t-16.71-28.71q-12-10.52-27-8.41-17.07,3.3-29.68,17.61a134.37,134.37,0,0,0-21.5,34A303.37,303.37,0,0,0,476,312.06q-5.73,19.62-9,33.42a24,24,0,0,1-.69,2.4q.42-3.6,1.23-12.81,1.63-17.81,4.23-44.17T477,243.32q2.65-21.21,4.43-23.51a2.16,2.16,0,0,0,.89-2.2,3.81,3.81,0,0,0-1.09-2.25,1.62,1.62,0,0,0-2.12-.15q-2.73,3-6.21,28.56t-6.82,57.74q-3.35,32.16-5.53,55.17-.94,10.92-1.63,16.61a180.76,180.76,0,0,1-19.93,1.5,8.28,8.28,0,0,0-2.66.75,16.81,16.81,0,0,0-2.59,1.46,4,4,0,0,0-1.43,1.4c-.19.4.09.6.81.6,2.46-.07,4.64-.17,6.56-.3a75.38,75.38,0,0,1,8.66-.3,55.28,55.28,0,0,1,9.89,1.3,189.25,189.25,0,0,1-7.09,29.21,175.41,175.41,0,0,0-7.37,30.52c-.37,4.93.16,8.44,1.57,10.5s2.93,3,4.57,2.71q4.1-.6,5.25-4a36.58,36.58,0,0,0,1.57-9.05c.09-1.4.23-2.9.41-4.5q1-8.72,1.64-17.81a354,354,0,0,1,4.5-36.32,87.52,87.52,0,0,1,18.08,8.1q9.07,5.31,18.36,11.51,10,6.7,20.19,12.6a91.21,91.21,0,0,0,20.88,8.91,49.66,49.66,0,0,0,22,1.1q1.1-.3.48-1.2A7.22,7.22,0,0,0,560.84,420.12ZM472,345q4.64-17.65,11.39-38.42A347,347,0,0,1,499,266.89q8.88-19,19.59-31.07t23.13-12.41A23.06,23.06,0,0,1,561,234q7,10.2,7.77,26.31t-5.59,34.22a113.11,113.11,0,0,1-19.72,34.12,123.52,123.52,0,0,1-33,27.71q-19.73,11.61-45.24,16Q467.37,362.69,472,345Z"/><path class="cls-1" d="M672.53,387.65a3.32,3.32,0,0,0-2.25-.3,2.07,2.07,0,0,0-1.64,1.35q-1.36,4.8-7.71,11.91t-13.44,9.2q-5.19,1-7-1.9a18,18,0,0,1-2.39-9.1,45.37,45.37,0,0,1,.48-9.41q5.46-.39,8.19-2.9a10.84,10.84,0,0,0,3.41-6.1q1.1-5.7-2.05-8.16t-8-1.65q-9.69,2.1-13.51,10a28.35,28.35,0,0,0-2.63,8.79,99.21,99.21,0,0,1-8.83,14.42,102.06,102.06,0,0,1-12.83,14.86c-.36.4-.68.73-1,1-.82.8-1.32,1.17-1.5,1.1s-.32-.6-.41-1.6a3.77,3.77,0,0,0-.14-1,124.57,124.57,0,0,1,2.46-28.32q1.23-7.5,1.77-13.51a3.77,3.77,0,0,0,.14-1,11.89,11.89,0,0,0-.07-3.85c-.23-1.1-1.12-1.95-2.66-2.55a10.26,10.26,0,0,0-8.73.5,23,23,0,0,0-7,5.8,57.86,57.86,0,0,0-4.57,6.31q.14-1.61.27-3a2.42,2.42,0,0,0-2.25-2.61,7.59,7.59,0,0,0-4.64.75,4.65,4.65,0,0,0-2.8,3.46,3.48,3.48,0,0,1-.07.8,2.86,2.86,0,0,0-.07.55v.45a4,4,0,0,0-.13,1.2,92.25,92.25,0,0,1-6.35,9.3,52.87,52.87,0,0,1-9.48,9.71,18,18,0,0,1-7.1,3.5,5,5,0,0,1-5.87-2.5,11.67,11.67,0,0,1-.81-6.75,41.54,41.54,0,0,1,1.5-6.86A16,16,0,0,0,555.11,383a27.83,27.83,0,0,0,5.32-11.26q1.23-9.4-4-10.45t-11.81,5.35q-5.86,6.6-10,18.66t-1.16,19.66q3.55,5.91,11.4,4.9a29.17,29.17,0,0,0,13.85-5.4,57.89,57.89,0,0,0,10.91-11.51q-.81,5.91-1.91,11.21a2.33,2.33,0,0,0,1.91,2.85,7.71,7.71,0,0,0,4.71-.4,4.91,4.91,0,0,0,3.21-3.25q.4-2.4.75-4.5c.22-1.4.52-3,.89-4.91v-.2A74.35,74.35,0,0,1,589.22,377q-.27,1.59-1,5.6-1.37,7.41-2.66,18.11a78.91,78.91,0,0,0-.28,19q1,8.31,6.49,8.8a16,16,0,0,0,7.23-2.5,43.48,43.48,0,0,0,6.69-4.9,96.2,96.2,0,0,0,13.64-15.71c1.79-2.53,3.38-4.93,4.8-7.19a22.71,22.71,0,0,0,6.53,13.19,13.65,13.65,0,0,0,7.64,4.06q4.23.64,11-2.26a53.8,53.8,0,0,0,15.49-10.4q6.61-6.4,8.53-13.51A1.54,1.54,0,0,0,672.53,387.65Zm-31.72-5.25a9.7,9.7,0,0,1,2.18-3.1c.73-.6,1.27-.8,1.64-.6a1.39,1.39,0,0,1,.61,1.2,5.38,5.38,0,0,1-.07,1.5q-1.09,3.41-5.59,4.3A21.43,21.43,0,0,1,640.81,382.4Zm-93.07-5.1a27.74,27.74,0,0,1,5.87-7.81,11.34,11.34,0,0,1,1.29-1c.41-.26.71-.26.89,0a3.14,3.14,0,0,1,0,1.9,24.83,24.83,0,0,1-3.55,9.06,13.37,13.37,0,0,1-8.18,6.45A52.48,52.48,0,0,1,547.74,377.3Z"/><path class="cls-1" d="M815.24,347.23a47.44,47.44,0,0,0-19.58-10.56,109.69,109.69,0,0,0-26.68-3.9,182.77,182.77,0,0,0-27.77,1.3,110.13,110.13,0,0,0,36.37-31.16q14.26-19.17,16.72-39.18,1.77-20.51-7.1-30.66t-23.67-10.91q-14.82-.75-31,6.91a88,88,0,0,0-29.13,22.76q-21.57,26.31-28.52,71.54-.69,6.11,2.59,8.55a8.66,8.66,0,0,0,6.75,1.9c2.32-.36,3.55-1.45,3.69-3.25s-2.07-4.1-6.62-6.9q-4.37-3.41-.68-17A156.08,156.08,0,0,1,692,277.79q7.71-15.36,15.35-24.16a79.64,79.64,0,0,1,25.25-19.91Q746.41,227,759,227.67T778.88,237q7.36,8.7,5.86,26.21a83.53,83.53,0,0,1-8.25,28.27,92.44,92.44,0,0,1-19.1,26.11,84.78,84.78,0,0,1-30,18.46q-3.67.71-7.64,1.4A315.44,315.44,0,0,1,734.66,305a204.8,204.8,0,0,1,12-20.26q1.5-2.81-.54-3.66a7.78,7.78,0,0,0-5.19.1,9.43,9.43,0,0,0-5.05,3.66q-6,9.5-13.78,32.91-3.4,9.62-7.64,20.92-5.06,1-10.24,2.4c-.91.2-1.45.58-1.63,1.15a1.44,1.44,0,0,0,.41,1.55,2.74,2.74,0,0,0,2,.7q4-.3,7.64-.9a282.14,282.14,0,0,0-15.82,59.93q-2.46,18.21.06,32.32t11.26,21.26q8.73,7.16,24.77,4.5t40.46-18.06a130.15,130.15,0,0,0,36.37-35.07q14.79-21.16,14.12-42.27Q823,354.39,815.24,347.23Zm-22.58,55.13A114.71,114.71,0,0,1,762.37,432q-21.17,13.61-35.55,13.26t-21-11.45q-6.62-11.11-4.29-29.62A281.32,281.32,0,0,1,718,342.58a98.17,98.17,0,0,0,11.05-3.2A203,203,0,0,1,761.89,336q15.89-.3,27.22,5.11a27.08,27.08,0,0,1,11,9.6q4.15,6.3,4.84,16.21Q805.35,384.4,792.66,402.36Z"/><path class="cls-1" d="M949.79,388a2.79,2.79,0,0,0-2.26-.65q-13.37,1.9-20.81,5.4a46.6,46.6,0,0,0-11.66,7.41c-.37.2-.78.43-1.23.7-1.09.6-2.25,1.18-3.48,1.75a9,9,0,0,1-3.55.9,2.84,2.84,0,0,1-2.66-1.65q-1.77-4.11.55-10.81a26.18,26.18,0,0,1,6.68-10.8q4.36-4.2,8.19.6a1.73,1.73,0,0,0,2.18.45,4.36,4.36,0,0,0,2.12-1.75,2,2,0,0,0,.07-2.3,9.1,9.1,0,0,0-7.3-2.76,26.34,26.34,0,0,0-8.53,1.65,25.89,25.89,0,0,0-11.19,8.06,18.56,18.56,0,0,0-4.37,11.21,11.43,11.43,0,0,0,0,1.17,31.1,31.1,0,0,1-5.08,4.28,18.27,18.27,0,0,1-10,3.45q-5.19.15-6.28-3.65a16.43,16.43,0,0,1,1.23-7.76,82.07,82.07,0,0,1,3.82-8.45,53,53,0,0,0,3.41-7.2q.82-3.1-2.18-3.86a12.79,12.79,0,0,0-6.89.45,10.09,10.09,0,0,0-7.85,10.41c-.09.73-.18,1.5-.27,2.3l-.28.2q-2,3.21-5.32,7.4a27.17,27.17,0,0,1-6.55,6.31,7.41,7.41,0,0,1-5.93.95q-2.67-.86-1.44-4.85a21.75,21.75,0,0,1,5.26-7.61,14.24,14.24,0,0,1,8.12-4.3c2-.27,3.2-1.05,3.61-2.35a3.75,3.75,0,0,0-1-3.75,5.93,5.93,0,0,0-4.71-1.8,22.39,22.39,0,0,0-15.42,8.75q-5.73,7.46-3.69,14.16c1.19,2.67,3.48,4.2,6.9,4.6a19.34,19.34,0,0,0,10-1.5,18.22,18.22,0,0,0,5.4-3.6,52.25,52.25,0,0,0,4.16-4.5,15.08,15.08,0,0,0,3.2,9.25q3.21,4.26,10.72,4.55a23.25,23.25,0,0,0,9-1.75,30.36,30.36,0,0,0,7.37-4.25c.64-.47,1.26-1,1.85-1.45a13.87,13.87,0,0,0,3.74,4.35q8.19,5.7,17.06,0a40.24,40.24,0,0,0,4.09-3,42.32,42.32,0,0,1,10.65-6.7q6.81-3.21,19-4.91c1-.13,1.62-.5,1.85-1.1A1.47,1.47,0,0,0,949.79,388Z"/><path class="cls-1" d="M970.65,372.69a2.89,2.89,0,0,1,2,.85,1.3,1.3,0,0,1,0,1.75,72.9,72.9,0,0,1-22.24,18,91.88,91.88,0,0,1,13.3,6.91,56.92,56.92,0,0,1,11.12,8.5c.55.67.34,1.27-.61,1.8a8.73,8.73,0,0,1-3.48,1,4.12,4.12,0,0,1-3.14-.7,62.13,62.13,0,0,0-8.19-7.55,56.76,56.76,0,0,0-10-6.35q-2.73,18.51-4.09,34.21c-.27,1.41-1.28,1.89-3,1.45a12.4,12.4,0,0,1-5.12-2.85,6.2,6.2,0,0,1-2.53-4.6,755.91,755.91,0,0,1,13.85-90.7,532.51,532.51,0,0,1,26.82-89.3q8.19-19,14.19-22.91t8.19,3.4q2.18,7.3-1.09,21.92-5.6,22.8-13.65,46t-16.78,46.18q-7.1,18.7-13.65,37.12-1.1,6-1.91,12a67.31,67.31,0,0,0,17.88-15.31A2.46,2.46,0,0,1,970.65,372.69Zm-1.77-76.49q-6.48,27-11.4,52.88,4-10.6,8-21.51,7.79-20.51,15-41.37T992.42,245q3.14-14.6,1-16.85t-8.94,15.65A501.38,501.38,0,0,0,968.88,296.2Z"/><path class="cls-1" d="M153.07,504.77a9.72,9.72,0,0,1-1.11,4.68,10.26,10.26,0,0,1-3.18,3.53,14.53,14.53,0,0,1-4,1.77,17,17,0,0,1-4.71.63,18.51,18.51,0,0,1-5.85-.84,13,13,0,0,1-4.43-2.45q-4-3.6-4-11.34h2.88q0,11.65,11.44,11.65a12.55,12.55,0,0,0,7-1.83,7.67,7.67,0,0,0,2.29-2.53,6.73,6.73,0,0,0,.83-3.32q0-4.8-5.39-6.69h0c-.3-.07-.62-.15-1-.26s-.66-.19-1-.26l-4.76-1.28c-1.63-.44-3.25-.84-4.87-1.23q-6.5-2.4-6.5-8.78a9.08,9.08,0,0,1,4.13-8A14.91,14.91,0,0,1,139.4,476q12.56,0,13.06,12.81h-2.87q-.3-9.82-10.19-9.83a12.35,12.35,0,0,0-6.75,1.62,6.19,6.19,0,0,0-3,5.59q0,4.5,5.4,6.22h0c.94.28,1.88.53,2.82.76s1.88.48,2.82.76l3,.75,2.95.76Q153.07,497.93,153.07,504.77Z"/><path class="cls-1" d="M209.53,495.68q0,8.31-4.14,13.69a16.06,16.06,0,0,1-25,0q-4.14-5.39-4.14-13.69T180.34,482a16.06,16.06,0,0,1,25,0Q209.53,487.42,209.53,495.68Zm-2.88,0q0-7.21-3.48-11.76a13.28,13.28,0,0,0-20.62,0q-3.47,4.54-3.47,11.76t3.47,11.81a13.28,13.28,0,0,0,20.62,0Q206.65,502.9,206.65,495.68Z"/><path class="cls-1" d="M256.31,479.85H236.24v13.58h18.15v3H236.24v18.13h-2.87V476.87h22.94Z"/><path class="cls-1" d="M303.84,479.85h-12.3v34.69h-2.82V479.85h-12.3v-3h27.42Z"/><path class="cls-1" d="M370.29,476.87l-10.44,37.67h-2.72l-9.38-32q-2.26,7.94-4.59,16t-4.53,16H335.9l-10.68-37.67h3l9,31.87q2.26-7.94,4.58-16t4.54-15.89h2.82l9.38,31.93q2.22-7.95,4.41-16t4.36-15.91Z"/><path class="cls-1" d="M423.82,514.54H420.7l-4.49-11.75h-16l-2.32,5.9q-1.22,3.09-2.22,5.85h-3.23L407,476.87h2.57Zm-8.72-14.73c-.61-1.67-1.18-3.23-1.74-4.68s-1.1-2.88-1.64-4.31l-1.64-4.36q-.82-2.22-1.79-4.83l-3.5,9q-1.69,4.33-3.55,9.2Z"/><path class="cls-1" d="M469.19,514.54l-7-16.72H449.23v16.72h-2.88V476.87h14.88q11.38,0,11.39,10.14,0,7.62-7.41,10.24,1.71,4.13,3.63,8.7t3.58,8.59Zm.55-27.64q0-7-8.26-7H449.23v14.94H461a9.8,9.8,0,0,0,6.25-2l0,.05A7.4,7.4,0,0,0,469.74,486.9Z"/><path class="cls-1" d="M521.06,514.54H496.31V476.87h24.55v3H499.18v13.58H519.6v3H499.18v15.16h21.88Z"/><path class="cls-2" d="M581.86,495.68q0,8.42-4.29,13.53-4.64,5.34-12.65,5.33H553.47V476.87h12.91q7.82,0,11.9,5.59Q581.85,487.53,581.86,495.68Zm-2.88,0q0-7.32-3-11.44-3.12-4.39-9.88-4.39h-9.78v31.72h8.77a14.25,14.25,0,0,0,5.92-1.18,12.81,12.81,0,0,0,4.46-3.32Q579,502.84,579,495.68Z"/><path class="cls-2" d="M630.2,514.54H605.45V476.87H630v3H608.32v13.58h20.42v3H608.32v15.16H630.2Z"/><path class="cls-2" d="M680.76,476.87l-13.71,37.67h-2.42l-14.06-37.67h3l12.35,32.55q3-8.1,6-16.3t5.9-16.25Z"/><path class="cls-2" d="M728,514.54H703.19V476.87h24.56v3H706.07v13.58h20.42v3H706.07v15.16H728Z"/><path class="cls-2" d="M772.76,514.54H750V476.87h2.87v34.7h19.91Z"/><path class="cls-2" d="M827.61,495.68q0,8.31-4.14,13.69a16.06,16.06,0,0,1-25.05,0q-4.14-5.39-4.13-13.69T798.42,482a16.06,16.06,0,0,1,25.05,0Q827.61,487.42,827.61,495.68Zm-2.88,0q0-7.21-3.47-11.76a13.28,13.28,0,0,0-20.62,0q-3.48,4.54-3.48,11.76t3.48,11.81a13.28,13.28,0,0,0,20.62,0Q824.74,502.9,824.73,495.68Z"/><path class="cls-2" d="M877.56,487.63q0,6.54-5.14,9.1h.05a11.56,11.56,0,0,1-6.35,1.56H854.33v16.25H851.5V476.87h14.72q5.14,0,8.12,2.61Q877.57,482.3,877.56,487.63Zm-2.87,0q0-7.78-8.47-7.78H854.33v15.47h11.89a8.88,8.88,0,0,0,6-2A7.06,7.06,0,0,0,874.69,487.63Z"/><path class="cls-2" d="M924.55,514.54H899.79V476.87h24.56v3H902.67v13.58h20.42v3H902.67v15.16h21.88Z"/><path class="cls-2" d="M969.46,514.54l-7-16.72h-13v16.72h-2.87V476.87H961.5q11.38,0,11.39,10.14,0,7.62-7.41,10.24,1.71,4.13,3.63,8.7t3.58,8.59ZM970,486.9q0-7-8.27-7H949.5v14.94h11.8a9.82,9.82,0,0,0,6.25-2l0,.05A7.4,7.4,0,0,0,970,486.9Z"/></svg>