<?xml version="1.0" encoding="iso-8859-1"?>
<svg id="Layer_1" data-name="Layer 1" xmlns="http://www.w3.org/2000/svg" xmlns:xlink="http://www.w3.org/1999/xlink" viewBox="0 0 325.54 250.52"><defs><style>.cls-1{fill:url(#linear-gradient);}.cls-2{fill:#ffe9cc;}.cls-3{fill:url(#linear-gradient-2);}.cls-4{fill:url(#linear-gradient-3);}.cls-5{fill:url(#linear-gradient-4);}.cls-6{fill:url(#linear-gradient-5);}</style><linearGradient id="linear-gradient" x1="172.22" y1="261.35" x2="413.64" y2="261.35" gradientUnits="userSpaceOnUse"><stop offset="0" stop-color="#ffb800"/><stop offset="0.47" stop-color="#ffa300"/><stop offset="0.98" stop-color="#e2792b"/></linearGradient><linearGradient id="linear-gradient-2" x1="359.98" y1="286.95" x2="492.67" y2="286.95" gradientUnits="userSpaceOnUse"><stop offset="0" stop-color="#ffb800"/><stop offset="1" stop-color="#ffa300"/></linearGradient><linearGradient id="linear-gradient-3" x1="115.05" y1="307.37" x2="300.2" y2="307.37" xlink:href="#linear-gradient"/><linearGradient id="linear-gradient-4" x1="338.27" y1="339.17" x2="184.9" y2="341.1" xlink:href="#linear-gradient"/><linearGradient id="linear-gradient-5" x1="167.13" y1="371.57" x2="470" y2="371.57" xlink:href="#linear-gradient"/></defs><title>Pixelcat Productions</title><path class="cls-1" d="M367,325.77l46.68-96.88a119,119,0,0,0-29.49-11.25c-.93,3.76.87,13,1,13.49-14.47-39.06-45.32-48.7-45.32-48.7-24.11,27.49-15.92,68-15.92,68-4.34-4.34-5.78-19.29-5.78-19.29-106.36-34-145.36,62.84-145.87,64.13,25.08-41.46,68.55-45.67,102-27,24.55,13.71,39.22,39.08,57.39,55.46,6.17,5.56,20.46,13.57,28.39,16.52l4.64-9.63c-3.07-1.18-5.15-6-4.39-18C360.23,312.64,360.66,323.46,367,325.77Zm-21.87-125.5s22.67,9.17,26.05,28.46c0,0-6.63-14.19-24.12-22.19,0,0-10.61,14.47-10.12,30.87C336.9,237.41,332.55,217.16,345.09,200.27Zm15,92.6c-6.27-14-23.88-18.81-23.88-18.81C363.9,273.58,360,292.87,360,292.87Z" transform="translate(-167.13 -182.43)"/><path class="cls-2" d="M371.14,228.73s-6.63-14.19-24.12-22.19c0,0-10.61,14.47-10.12,30.87,0,0-4.35-20.25,8.19-37.14C345.09,200.27,367.76,209.44,371.14,228.73Z" transform="translate(-167.13 -182.43)"/><path class="cls-2" d="M360,292.87c-6.27-14-23.88-18.81-23.88-18.81C363.9,273.58,360,292.87,360,292.87Z" transform="translate(-167.13 -182.43)"/><path class="cls-3" d="M492.67,247.06c-40-14.3-67.36,6.25-68,6.74l9.63-9.64a86.48,86.48,0,0,0-20.67-15.27L367,325.77c3,1.08,7.22.28,13.34-4.39-.27.32-9.8,11.5-15.68,9.25L360,340.26c2.5.94,4.31,1.44,4.89,1.32,2.41-.48,29.9,1,29.9,1s44.36,8.2,58.84-5.31,6.27-42,6.27-42c-1.88,1.4-11.89,3.26-12.51,3.37C483.52,288.51,492.67,247.06,492.67,247.06Zm-97.9,58.83c.23-.4,12.26-20.49,33.27,3.86C427.64,309.49,410.5,298.75,394.77,305.89ZM452,289.38c.39-.27,13-9.17,17.86-27.47,0,0-16-8-32.1-4.85.72-.28,19.59-7.46,37.95,1.92C475.67,259,470.41,282.84,452,289.38Z" transform="translate(-167.13 -182.43)"/><path class="cls-2" d="M475.67,259s-5.26,23.86-23.71,30.4c.39-.27,13-9.17,17.86-27.47,0,0-16-8-32.1-4.85C438.44,256.78,457.31,249.6,475.67,259Z" transform="translate(-167.13 -182.43)"/><path class="cls-2" d="M428,309.75c-.4-.26-17.54-11-33.27-3.86C395,305.49,407,285.4,428,309.75Z" transform="translate(-167.13 -182.43)"/><path class="cls-2" d="M380.3,321.38c-.27.32-9.8,11.5-15.68,9.25-3.07-1.18-5.15-6-4.39-18,0,0,.43,10.82,6.73,13.13C369.92,326.85,374.18,326.05,380.3,321.38Z" transform="translate(-167.13 -182.43)"/><path class="cls-4" d="M352.29,344.49c-69-8.66-60-33.37-120-37.15-50.23-3.16-61.86,28.05-64.42,39.39a16.76,16.76,0,0,1-.69-1.72c2.41-101.71,100.8-85.57,128.77-48.41C320.34,329.06,346.15,342,352.29,344.49Z" transform="translate(-167.13 -182.43)"/><path class="cls-5" d="M353.57,345c-14.28-4.64-75,19.27-75,19.27-85.12,26.94-106.88-9-110.72-17.52,2.56-11.34,14.19-42.55,64.42-39.39,60,3.78,51,28.49,120.05,37.15C353,344.76,353.39,344.92,353.57,345Z" transform="translate(-167.13 -182.43)"/><path class="cls-2" d="M469.31,332.46C447.37,419,339.79,430.9,339.79,430.9,209,445.72,173.59,375.84,168,362.26c9.56,15,44.1,52.44,150.58,51.28C318.57,413.54,424.28,407.86,469.31,332.46Z" transform="translate(-167.13 -182.43)"/><path class="cls-6" d="M470,329.58q-.33,1.46-.69,2.88c-45,75.4-150.74,81.08-150.74,81.08-106.48,1.16-141-36.26-150.58-51.28-.6-1.45-.86-2.25-.86-2.25,17.37,14.47,50.16,36.17,118.64,10.12s106.1-20.73,106.1-20.73C455,359.81,470,329.58,470,329.58Z" transform="translate(-167.13 -182.43)"/></svg>