<svg id="Layer_1" data-name="Layer 1" xmlns="http://www.w3.org/2000/svg" xmlns:xlink="http://www.w3.org/1999/xlink" viewBox="0 0 682.88 499.68"><defs><style>.cls-1{fill:url(#linear-gradient);}.cls-2{fill:url(#linear-gradient-2);}.cls-3{fill:url(#linear-gradient-3);}.cls-4{fill:url(#linear-gradient-4);}</style><linearGradient id="linear-gradient" x1="281.04" y1="514.28" x2="281.04" y2="193.76" gradientTransform="matrix(-1, 0, 0, 1, 682.88, 0)" gradientUnits="userSpaceOnUse"><stop offset="0" stop-color="#e37b29"/><stop offset="1" stop-color="#ffae00"/></linearGradient><linearGradient id="linear-gradient-2" x1="359.26" y1="514.28" x2="359.26" y2="193.76" xlink:href="#linear-gradient"/><linearGradient id="linear-gradient-3" x1="390.33" y1="742.91" x2="390.33" y2="270.97" xlink:href="#linear-gradient"/><linearGradient id="linear-gradient-4" x1="83.92" y1="249.84" x2="596.06" y2="249.84" xlink:href="#linear-gradient"/></defs><title>Artboard 1</title><path class="cls-1" d="M190.17,292.53c1.32,21.2,7.41,41.26,12.83,61.55,4.77,17.65,9.23,35.35,12.32,53.32,2.05,11.64,1.51,23.29-3.45,34A221,221,0,0,0,244.94,461c8.14-9.64,12.19-21.47,15.56-33.57,2.14-7.78,3.41-15.74,5.18-23.61,1.09-4.73,3.69-5.78,8.15-3.68q16.23,7.57,32.48,15.1c4.18,1.91,6.14.73,5.86-4-.4-6.19.6-12,4.37-17a15.19,15.19,0,0,1,3.32-3.46,3.56,3.56,0,0,1,3.05-.5,3.3,3.3,0,0,1,.73,2.91c-7.33,23.25,3.18,40,19.74,54.59,1.32,1.23,2.6,2.46,3.87,3.64-.09.64-.23,1.18-.37,1.77-3-.22-6.05-.36-9.05-.54-11.1-.82-21.74,0-30.57,7.78-4.59,4-7.05,8.82-5.23,15.05a12.17,12.17,0,0,0,2.55,4.69c2.64,2.82,6.55,3.82,10.55,4.19,7.1.59,14.24.54,21.38.54,29-.18,58-.23,87-.36,26.11-.09,52.18-.23,78.29-.64,21.88-.32,43.45-3.59,63.28-14.19C587,458,602.18,440.52,609.41,417a103.14,103.14,0,0,0,.91-57.45,90.18,90.18,0,0,0-32.84-48.82,87,87,0,0,0-36.57-16.19c-11.65-2.23-23.16-3-34.58.27a24.44,24.44,0,0,0-8.73,4.87c-5.6,4.69-5.1,11.55,1.54,14.56a45.24,45.24,0,0,0,17.65,4.18,64.44,64.44,0,0,1,27.48,6.55,79.68,79.68,0,0,1,11.65,6.78A64.2,64.2,0,0,1,568,342.48a68.86,68.86,0,0,1,6.23,8.46c10.74,17.47,10,34.94,1.55,52.68-9.55,20.11-25.7,31.89-46.85,38.31-11.7,3.55-23.21,3.91-34.94,3.09-.64,0-1.37,0-2-.09-7.42-.64-12-2.37-14.52-6.05-2-2.91-2.86-7.1-2.77-13,.41-21.88-.68-43.62-4.78-65.23-5.09-27.11-15.92-51.36-36-70.47a114.11,114.11,0,0,0-62-30.7c-13.33-2.05-26.84-3.82-38.9-10.88a43.88,43.88,0,0,1-4.14-2.77c-.68-.5-1.36-1-2-1.55a31.48,31.48,0,0,1-6.41-7,14.38,14.38,0,0,1-1.27-1.91,39.61,39.61,0,0,1-5.42-21.79c2.32-19.79,9.83-36.89,19.47-53.09,10.28-17.33,13.88-35.93,13.06-55.77-.91-21.83-5.05-42.67-16.92-61.41a78.49,78.49,0,0,0-6.74-8.87c-.18-.28-.45-.5-.63-.78-3-3.09-5.69-2.59-8.37,1-.19.23-.32.5-.55.82-4.73,7.05-9.83,13.92-14.92,20.79-2.05,2.82-4.69,3.14-8.19,2.09C266.32,51.29,245,54.61,228.15,74c-4.46,5.18-9.82,4.59-15.42,4.73a18.27,18.27,0,0,0-9.14,2.46,10.71,10.71,0,0,0-3,2.36,1.87,1.87,0,0,0-.14.18,12.2,12.2,0,0,0-2.82,7.1c-1.27,13.06,1.19,25.16,11.65,34.44,2.73,2.45,5.5,5,8.32,7.41,16.74,15,17.65,30.34,8.65,48.81-2,4.05-4.28,7.92-6.64,12.06l-.05,0C216,196.77,207,217.7,205.32,221.61c-.19.41-.28.64-.28.64-3.45,7.05-7,14.1-9.78,21.43C189.35,259.37,189.21,275.88,190.17,292.53Zm77.2-204.07a5.13,5.13,0,0,1-.73,3.14c-3.41,5.23-8.33,8-16,8.82C248,99.1,244,97.74,240.8,95.24c-1.18-1-1.41-5.55-.27-6.51a54,54,0,0,1,12.23-8.5C257,78,266.68,83.73,267.37,88.46Z"/><path class="cls-2" d="M320.41,237.35a31.48,31.48,0,0,0,6.41,7A38.65,38.65,0,0,1,320.41,237.35Z"/><path class="cls-3" d="M281.89,59.68c2.36,1,6.25,2.13,7.72,1C296.52,55.05,301.08,47.69,304,39c.37-1-1-7.21-2.65-8.53-.44-.44-3.38,1.17-4.41,2.42-2.2,2.87-4.34,5.81-6.47,8.75-3,4.19-5.95,8.38-8.82,12.65C280.72,55.56,281.09,59.38,281.89,59.68Z"/><path class="cls-4" d="M86.82,259.1A255.1,255.1,0,0,0,156.88,435a246.74,246.74,0,0,0,20.21,19.15,250.35,250.35,0,0,0,23.25,17.66,254,254,0,0,0,47,24.85c.69-.59,1.38-1.23,2-1.87A72.77,72.77,0,0,0,258.7,484a239.86,239.86,0,0,1-48.78-25.06,247.21,247.21,0,0,1-44.69-38.46A240.09,240.09,0,0,1,324.4,19.65c6.12-.48,12.29-.69,18.51-.69,1.23,0,2.45,0,3.62.05C477.3,20.93,583,127.91,583,259.1a241.51,241.51,0,0,1-1.28,25.06A108.42,108.42,0,0,1,596.83,292,248,248,0,0,0,599,259.1C599,117.64,484.32,3,342.91,3c-3.08,0-6.17,0-9.25.21-5.53.16-11,.53-16.44,1.07-7.4.74-14.74,1.81-21.92,3.14s-14.15,3-21.12,4.94h-.05a254.51,254.51,0,0,0-39.21,14.47c-3.24,1.49-6.49,3.09-9.68,4.74a259.93,259.93,0,0,0-25.75,15.32A257,257,0,0,0,86.82,259.1Z"/></svg>