<svg xmlns="http://www.w3.org/2000/svg" xmlns:xlink="http://www.w3.org/1999/xlink" viewBox="0 0 600 600"><defs><style>.cls-1{fill:url(#linear-gradient);}.cls-2{fill:#ffe9cc;}.cls-3{fill:url(#linear-gradient-2);}.cls-4{fill:url(#linear-gradient-3);}.cls-5{fill:url(#linear-gradient-4);}.cls-6{fill:url(#linear-gradient-5);}.cls-7{font-size:70.7px;fill:#191816;font-family:Montserrat-Regular, Montserrat;}.cls-8{fill:url(#linear-gradient-6);}.cls-9{fill:url(#linear-gradient-7);}.cls-10{fill:url(#linear-gradient-8);}.cls-11{fill:url(#linear-gradient-9);}.cls-12{fill:url(#linear-gradient-10);}.cls-13{fill:url(#linear-gradient-11);}.cls-14{font-size:35.59px;fill:#fa0;font-family:MyriadPro-Regular, Myriad Pro;}.cls-15{fill:#ccd6dd;}.cls-16{fill:#e4ebef;}.cls-17{fill:#c1694f;}.cls-18{fill:#a95233;}.cls-19{fill:#264612;}.cls-20{fill:#ffe8b6;}.cls-21{fill:#ffd983;}.cls-22{fill:#dd2e44;}.cls-23{fill:#ea596e;}.cls-24{fill:#a0041e;}.cls-25{fill:#aa8dd8;}.cls-26{fill:#77b255;}.cls-27{fill:#5c913b;}.cls-28{fill:#9266cc;}.cls-29{fill:#ffcc4d;}.cls-30{fill:#fcab40;}.cls-31{fill:#bb1a34;}</style><linearGradient id="linear-gradient" x1="142.32" y1="210.32" x2="383.74" y2="210.32" gradientUnits="userSpaceOnUse"><stop offset="0" stop-color="#ffb800"/><stop offset="0.47" stop-color="#ffa300"/><stop offset="0.98" stop-color="#e2792b"/></linearGradient><linearGradient id="linear-gradient-2" x1="330.08" y1="235.93" x2="462.77" y2="235.93" gradientUnits="userSpaceOnUse"><stop offset="0" stop-color="#ffb800"/><stop offset="1" stop-color="#ffa300"/></linearGradient><linearGradient id="linear-gradient-3" x1="85.15" y1="256.34" x2="270.3" y2="256.34" xlink:href="#linear-gradient"/><linearGradient id="linear-gradient-4" x1="308.37" y1="288.15" x2="155" y2="290.08" xlink:href="#linear-gradient"/><linearGradient id="linear-gradient-5" x1="137.23" y1="320.55" x2="440.1" y2="320.55" xlink:href="#linear-gradient"/><linearGradient id="linear-gradient-6" x1="123.22" y1="440.8" x2="133.19" y2="440.8" xlink:href="#linear-gradient-2"/><linearGradient id="linear-gradient-7" x1="143.73" y1="423.01" x2="158.15" y2="423.01" xlink:href="#linear-gradient-2"/><linearGradient id="linear-gradient-8" x1="125.96" y1="407.73" x2="133.17" y2="407.73" xlink:href="#linear-gradient"/><linearGradient id="linear-gradient-9" x1="153.64" y1="401.56" x2="159.05" y2="401.56" xlink:href="#linear-gradient"/><linearGradient id="linear-gradient-10" x1="140.12" y1="446.84" x2="147.33" y2="446.84" xlink:href="#linear-gradient"/><linearGradient id="linear-gradient-11" x1="136.51" y1="395.26" x2="143.73" y2="395.26" xlink:href="#linear-gradient"/></defs><title>Celebration Cat</title><g id="Layer_1" data-name="Layer 1"><path class="cls-1" d="M337.06,274.75l46.68-96.89a119.5,119.5,0,0,0-29.49-11.25c-.93,3.76.87,13,1,13.49-14.47-39-45.32-48.69-45.32-48.69-24.11,27.49-15.92,68-15.92,68-4.34-4.34-5.78-19.29-5.78-19.29-106.36-34-145.36,62.84-145.87,64.12,25.08-41.46,68.55-45.67,102-27,24.55,13.71,39.22,39.08,57.39,55.46,6.17,5.55,20.46,13.57,28.39,16.52l4.64-9.63c-3.07-1.18-5.16-6-4.39-18C330.33,261.62,330.76,272.44,337.06,274.75Zm-21.87-125.5s22.67,9.17,26,28.46c0,0-6.62-14.19-24.11-22.19,0,0-10.61,14.47-10.12,30.87C307,186.39,302.65,166.13,315.19,149.25Zm14.95,92.6c-6.27-14-23.88-18.81-23.88-18.81C334,222.56,330.14,241.85,330.14,241.85Z"/><path class="cls-2" d="M341.23,177.71s-6.62-14.19-24.11-22.19c0,0-10.61,14.47-10.12,30.87,0,0-4.35-20.26,8.19-37.14C315.19,149.25,337.86,158.42,341.23,177.71Z"/><path class="cls-2" d="M330.14,241.85c-6.27-14-23.88-18.81-23.88-18.81C334,222.56,330.14,241.85,330.14,241.85Z"/><path class="cls-3" d="M462.77,196c-40-14.3-67.36,6.25-68,6.74l9.63-9.64a86.26,86.26,0,0,0-20.67-15.28l-46.68,96.89c3,1.07,7.22.28,13.34-4.39-.27.32-9.8,11.49-15.68,9.25l-4.64,9.63c2.5.94,4.31,1.44,4.89,1.32,2.41-.48,29.9,1,29.9,1s44.36,8.21,58.84-5.3,6.26-42,6.26-42c-1.87,1.4-11.88,3.26-12.5,3.37C453.61,237.49,462.77,196,462.77,196Zm-97.9,58.83c.23-.4,12.26-20.49,33.27,3.85C397.74,258.47,380.6,247.73,364.87,254.87Zm57.19-16.51c.39-.27,13-9.17,17.85-27.47,0,0-16-8-32.09-4.85.72-.28,19.59-7.46,37.95,1.91C445.77,208,440.51,231.82,422.06,238.36Z"/><path class="cls-2" d="M445.77,208s-5.26,23.87-23.71,30.41c.39-.27,13-9.17,17.85-27.47,0,0-16-8-32.09-4.85C408.54,205.76,427.41,198.58,445.77,208Z"/><path class="cls-2" d="M398.14,258.72c-.4-.25-17.54-11-33.27-3.85C365.1,254.47,377.13,234.38,398.14,258.72Z"/><path class="cls-2" d="M350.4,270.36c-.27.32-9.8,11.49-15.68,9.25-3.07-1.18-5.16-6-4.39-18,0,0,.43,10.82,6.73,13.13C340,275.82,344.28,275,350.4,270.36Z"/><path class="cls-4" d="M322.39,293.47c-69-8.66-60-33.37-120-37.15-50.23-3.17-61.86,28.05-64.42,39.39a16.76,16.76,0,0,1-.69-1.72C139.64,192.28,238,208.41,266,245.58,290.44,278,316.25,291,322.39,293.47Z"/><path class="cls-5" d="M323.67,294c-14.28-4.64-75,19.27-75,19.27-85.12,26.94-106.88-9-110.72-17.52,2.56-11.34,14.19-42.56,64.42-39.39,60,3.78,51,28.49,120,37.15C323.06,293.74,323.49,293.9,323.67,294Z"/><path class="cls-2" d="M439.41,281.44C417.47,368,309.89,379.88,309.89,379.88c-130.78,14.82-166.2-55.07-171.8-68.64,9.55,15,44.09,52.43,150.58,51.28C288.67,362.52,394.38,356.84,439.41,281.44Z"/><path class="cls-6" d="M440.1,278.56q-.33,1.45-.69,2.88c-45,75.4-150.74,81.08-150.74,81.08-106.49,1.15-141-36.27-150.58-51.28-.6-1.45-.86-2.26-.86-2.26,17.36,14.47,50.16,36.18,118.64,10.13S362,298.37,362,298.37C425.07,308.79,440.1,278.56,440.1,278.56Z"/><text class="cls-7" transform="translate(159.05 450.4)">Pixelcat</text><rect class="cls-8" x="123.22" y="434.76" width="9.97" height="12.08"/><rect class="cls-9" x="143.73" y="414.27" width="14.42" height="17.47"/><rect class="cls-10" x="125.96" y="403.36" width="7.21" height="8.73"/><rect class="cls-11" x="153.64" y="398.28" width="5.42" height="6.56"/><rect class="cls-12" x="140.12" y="442.47" width="7.21" height="8.73"/><rect class="cls-13" x="136.51" y="390.9" width="7.21" height="8.73"/><text class="cls-14" transform="translate(161.92 479.55)">Productions</text></g><g id="Icons"><circle class="cls-15" cx="229.23" cy="275.64" r="4.53"/><path class="cls-15" d="M236.53,232.6a10.86,10.86,0,0,0,.24-2.22,10.54,10.54,0,0,0-21-1.49h-.15a6,6,0,0,0,0,12.06,2.85,2.85,0,0,0,.29,0,4.43,4.43,0,0,0-.29,1.54,4.49,4.49,0,0,0,1.63,3.45,6,6,0,0,0-1.63,4.1,6,6,0,0,0,6,6,6,6,0,0,0,.88,3.08,4.52,4.52,0,1,0,5.16,4.46,4.43,4.43,0,0,0-.29-1.54,2.85,2.85,0,0,0,.29,0,6,6,0,0,0,3.95-10.56,5.95,5.95,0,0,0,1.2-7.63,5.15,5.15,0,0,0,.88.09,6,6,0,0,0,2.78-11.36Z"/><circle class="cls-16" cx="224.7" cy="250" r="3.02"/><path class="cls-16" d="M233.75,231.89a6,6,0,0,0-12.07,0c0,.1,0,.19,0,.29a4.33,4.33,0,0,0-1.53-.29,4.53,4.53,0,1,0,1.68,8.72,4.51,4.51,0,1,0,8.36-3.24A6,6,0,0,0,233.75,231.89Z"/><path class="cls-17" d="M229.56,202s-2.46-2.41-2.63-2.54a4.78,4.78,0,0,0-.75-5.11c-1.9-1.85-5.31-1.47-7.66.88l-6.39,6.4c-2.35,2.34-2.74,5.76-.88,7.65a4.76,4.76,0,0,0,5.11.75c.13.17,2.54,2.64,2.54,2.64a6,6,0,0,0,8.53,0l2.13-2.14A6,6,0,0,0,229.56,202Z"/><path class="cls-18" d="M227.83,204.69c.29-.29,1.19-1.24,2.12-2.26a5.84,5.84,0,0,0-.39-.48s-2.46-2.41-2.63-2.54a7,7,0,0,1-1.64,2.54l-6.39,6.4a7.1,7.1,0,0,1-2.54,1.63c.13.17,2.54,2.64,2.54,2.64a4.54,4.54,0,0,0,.48.39c.87-.79,1.76-1.62,2.05-1.91Z"/><path class="cls-19" d="M312.84,264.44l-15.29-15.29c-11.06-11.05-22.09-12.49-43.32-21l-9.5,9.5c9.75,19.94,9.76,32.4,20.82,43.45l15.29,15.3c3,3,5.39,5.46,8.39,2.46l25.37-25.38C317.61,270.52,315.83,267.44,312.84,264.44Z"/><path class="cls-20" d="M256.43,229.37s5.25,1.94-1.69,8.88c-6.4,6.4-8.8,2-8.8,2l-10.4-10.4,10.67-10.67Z"/><path class="cls-21" d="M247.13,220.07,244.07,217l-10.66,10.67,3.06,3.06c3,3,2.47,3.18,8-2.32l1.79-1.79C250.58,222.27,250.13,223.07,247.13,220.07Z"/><path class="cls-19" d="M245.14,213.81a4.52,4.52,0,0,1,0,6.4l-8.53,8.53a4.53,4.53,0,1,1-6.41-6.4l8.53-8.53A4.54,4.54,0,0,1,245.14,213.81Z"/><path class="cls-20" d="M293.14,253.28a6,6,0,0,0-8.53,0l-14.93,14.94a6,6,0,0,0,0,8.53l12.8,12.8a6,6,0,0,0,8.53,0l14.93-14.93a6,6,0,0,0,0-8.54Z"/><path class="cls-22" d="M461.23,337.25a3.76,3.76,0,0,0-.71,1l0,0-29.57,66.61,0,0c-.55,1.07.37,3.23,2.25,5.11s4,2.8,5.11,2.25l0,0L505,382.72l0,0a3.69,3.69,0,0,0,1-.71c4.12-4.11-2.56-17.47-14.91-29.82S465.35,333.13,461.23,337.25Z"/><path class="cls-23" d="M464.85,349.14,431.68,403.2l-.75,1.68,0,0c-.55,1.07.37,3.23,2.25,5.11a10.54,10.54,0,0,0,1.87,1.47l40.32-49.15Z"/><path class="cls-24" d="M491.24,352c12.32,12.32,19.15,25.45,15.27,29.33s-17-2.95-29.33-15.26S458,340.57,461.91,336.69,478.93,339.64,491.24,352Z"/><path class="cls-25" d="M479.59,353.39a2.64,2.64,0,0,1-1.94.56,9.48,9.48,0,0,1-5.56-2.3,5.85,5.85,0,0,1-1.93-4.91c.33-3.14,3.49-6,8.86-5.44,2.09.22,3-.45,3.06-.77s-.73-1.18-2.82-1.41a9.51,9.51,0,0,1-5.57-2.3,5.85,5.85,0,0,1-1.93-4.91c.34-3.14,3.49-6,8.86-5.44a4.39,4.39,0,0,0,2.67-.35c.27-.17.38-.33.39-.42,0-.32-.73-1.17-2.82-1.4a2.63,2.63,0,1,1,.56-5.24c5.37.58,7.84,4.06,7.5,7.21s-3.49,6-8.87,5.45a4.27,4.27,0,0,0-2.66.35c-.27.16-.38.32-.39.41,0,.33.72,1.18,2.82,1.41,5.37.58,7.84,4.06,7.5,7.21s-3.49,6-8.87,5.44a4.35,4.35,0,0,0-2.66.35c-.28.17-.38.33-.39.42,0,.32.72,1.18,2.82,1.4a2.65,2.65,0,0,1,1.37,4.68Z"/><path class="cls-26" d="M511.41,377.77c5.2-1.47,8.79.85,9.64,3.89s-1,6.9-6.19,8.36c-2,.57-2.64,1.54-2.56,1.85s1.12.82,3.14.25c5.2-1.47,8.79.85,9.65,3.9s-1,6.89-6.2,8.35c-2,.57-2.64,1.54-2.55,1.85s1.11.82,3.14.25a2.64,2.64,0,1,1,1.42,5.08c-5.19,1.46-8.78-.85-9.64-3.9s1-6.89,6.2-8.35c2-.58,2.64-1.54,2.55-1.86s-1.11-.82-3.14-.25c-5.2,1.47-8.79-.85-9.64-3.9s1-6.89,6.2-8.35c2-.57,2.63-1.55,2.54-1.85s-1.11-.82-3.14-.26a2.63,2.63,0,1,1-1.42-5.06Z"/><path class="cls-25" d="M491.22,370.66a2.64,2.64,0,0,1-1.65-4.7,46.52,46.52,0,0,1,33.65-8.46,2.64,2.64,0,1,1-.74,5.22,41.81,41.81,0,0,0-29.62,7.36A2.63,2.63,0,0,1,491.22,370.66Z"/><path class="cls-26" d="M445.75,359.69a2.85,2.85,0,0,1-.76-.11,2.64,2.64,0,0,1-1.77-3.28c3-9.95,5.7-25.82,2.37-30a2.27,2.27,0,0,0-2.22-.83c-2.47.19-2.24,5.4-2.23,5.46a2.64,2.64,0,0,1-5.26.39c-.27-3.64.86-10.64,7.1-11.11A7.5,7.5,0,0,1,449.7,323c6.25,7.78-.09,30.33-1.42,34.77A2.66,2.66,0,0,1,445.75,359.69Z"/><circle class="cls-27" cx="497.8" cy="342.55" r="3.95"/><circle class="cls-28" cx="435.85" cy="364.96" r="5.27"/><circle class="cls-27" cx="516.26" cy="368.92" r="3.95"/><circle class="cls-27" cx="492.53" cy="400.55" r="3.95"/><circle class="cls-29" cx="504.39" cy="328.06" r="5.27"/><circle class="cls-29" cx="516.26" cy="339.92" r="3.95"/><circle class="cls-29" cx="508.35" cy="350.46" r="3.95"/><circle class="cls-29" cx="450.35" cy="379.46" r="3.95"/><path class="cls-22" d="M97.58,348.35c-12.35,12.35-19,25.71-14.91,29.82a3.42,3.42,0,0,0,1,.71l0,0,66.61,29.57,0,0c1.06.55,3.22-.37,5.1-2.25s2.8-4,2.25-5.1l0,0-29.57-66.61,0,0a3.76,3.76,0,0,0-.71-1C123.29,329.32,109.94,336,97.58,348.35Z"/><path class="cls-23" d="M113.25,358.52l40.31,49.15a10.54,10.54,0,0,0,1.87-1.47c1.88-1.88,2.8-4,2.25-5.1l0,0-.75-1.68-33.17-54.05Z"/><path class="cls-24" d="M126.73,332.88c3.88,3.88-3,17-15.26,29.33S86,381.36,82.14,377.47s3-17,15.26-29.32S122.84,329,126.73,332.88Z"/><path class="cls-25" d="M108.09,347.81a2.64,2.64,0,0,1,2.34-2.91c2.09-.22,2.85-1.08,2.82-1.4,0-.09-.12-.25-.39-.42a4.41,4.41,0,0,0-2.67-.35c-5.37.58-8.52-2.3-8.86-5.44s2.12-6.63,7.49-7.21c2.1-.23,2.86-1.08,2.83-1.4,0-.09-.13-.25-.4-.42a4.27,4.27,0,0,0-2.66-.35c-5.37.58-8.53-2.3-8.87-5.45s2.13-6.63,7.5-7.21a2.64,2.64,0,0,1,.57,5.24c-2.1.23-2.86,1.08-2.82,1.4,0,.09.11.25.39.42a4.27,4.27,0,0,0,2.66.35c5.37-.58,8.52,2.3,8.87,5.45A5.87,5.87,0,0,1,115,333a9.58,9.58,0,0,1-5.56,2.31c-2.09.22-2.86,1.08-2.82,1.4s1,1,3.05.77c5.38-.58,8.53,2.3,8.87,5.44a5.86,5.86,0,0,1-1.94,4.91,9.48,9.48,0,0,1-5.56,2.3,2.64,2.64,0,0,1-1.94-.56A2.61,2.61,0,0,1,108.09,347.81Z"/><path class="cls-26" d="M79.06,377.2A2.65,2.65,0,0,1,75.81,379c-2-.57-3-.06-3.14.25s.52,1.28,2.55,1.85c5.2,1.47,7,5.31,6.19,8.35s-4.44,5.37-9.64,3.9c-2-.57-3-.05-3.14.26s.52,1.27,2.55,1.85c5.2,1.46,7.06,5.31,6.2,8.35s-4.45,5.36-9.64,3.9a2.64,2.64,0,1,1,1.42-5.08c2,.57,3.06.06,3.14-.25s-.52-1.28-2.55-1.85c-5.2-1.46-7-5.31-6.19-8.35s4.44-5.36,9.64-3.9c2,.57,3,.06,3.14-.25s-.53-1.28-2.56-1.85c-5.19-1.46-7-5.31-6.19-8.36S72,372.49,77.23,374A2.63,2.63,0,0,1,79.06,377.2Z"/><path class="cls-25" d="M95.78,366.27a41.79,41.79,0,0,0-29.61-7.36,2.63,2.63,0,1,1-.75-5.21,46.54,46.54,0,0,1,33.66,8.45,2.64,2.64,0,1,1-3.3,4.12Z"/><path class="cls-26" d="M140.37,354c-1.34-4.44-7.68-27-1.43-34.77a7.51,7.51,0,0,1,6.73-2.79c6.23.47,7.36,7.47,7.09,11.11a2.63,2.63,0,1,1-5.25-.39c0-.06.23-5.27-2.24-5.46a2.27,2.27,0,0,0-2.22.83c-3.33,4.14-.62,20,2.37,30a2.63,2.63,0,0,1-1.77,3.28,2.85,2.85,0,0,1-.76.11A2.62,2.62,0,0,1,140.37,354Z"/><circle class="cls-27" cx="90.84" cy="338.75" r="3.95"/><circle class="cls-28" cx="152.79" cy="361.15" r="5.27"/><circle class="cls-27" cx="72.39" cy="365.11" r="3.95"/><circle class="cls-27" cx="96.11" cy="396.74" r="3.95"/><circle class="cls-29" cx="84.25" cy="324.25" r="5.27"/><circle class="cls-29" cx="72.39" cy="336.11" r="3.95"/><circle class="cls-29" cx="80.29" cy="346.65" r="3.95"/><circle class="cls-29" cx="138.29" cy="375.65" r="3.95"/><path class="cls-30" d="M385.17,185.11a3.63,3.63,0,0,1-3.51-2.75c-.13-.49-3.35-12.44-15.47-15.47C349.16,162.63,349,139,349,138a3.63,3.63,0,0,1,3.62-3.62,3.71,3.71,0,0,1,3.63,3.61c0,.19.19,19,11.74,21.85,16.4,4.1,20.57,20.06,20.74,20.74a3.63,3.63,0,0,1-2.64,4.39A3.79,3.79,0,0,1,385.17,185.11Z"/><path class="cls-31" d="M349,145.27c-4,0-5.78-2.91-4-6.48l4.39-8.77c1.78-3.56,4.7-3.56,6.48,0l4.38,8.77c1.78,3.57,0,6.48-4,6.48Z"/><path class="cls-31" d="M385.18,87.33c0,21.73-25.35,43.46-32.59,43.46S320,109.06,320,87.33c0-21,16.59-32.59,32.59-32.59S385.18,66.33,385.18,87.33Z"/><path class="cls-30" d="M356.21,134.41H349a3.62,3.62,0,0,1,0-7.24h7.25a3.62,3.62,0,1,1,0,7.24Z"/></g></svg>