<svg xmlns="http://www.w3.org/2000/svg" xmlns:xlink="http://www.w3.org/1999/xlink" viewBox="0 0 600 600"><defs><style>.cls-1{fill:url(#linear-gradient);}.cls-2{fill:#ffe9cc;}.cls-3{fill:url(#linear-gradient-2);}.cls-4{fill:url(#linear-gradient-3);}.cls-5{fill:url(#linear-gradient-4);}.cls-6{fill:url(#linear-gradient-5);}.cls-7{font-size:70.7px;fill:#191816;font-family:Montserrat-Regular, Montserrat;}.cls-8{fill:url(#linear-gradient-6);}.cls-9{fill:url(#linear-gradient-7);}.cls-10{fill:url(#linear-gradient-8);}.cls-11{fill:url(#linear-gradient-9);}.cls-12{fill:url(#linear-gradient-10);}.cls-13{fill:url(#linear-gradient-11);}.cls-14{font-size:35.59px;fill:#fa0;font-family:MyriadPro-Regular, Myriad Pro;}.cls-15{fill:#31373d;fill-rule:evenodd;}.cls-16{fill:#66757f;}.cls-17{fill:#292f33;}</style><linearGradient id="linear-gradient" x1="142.32" y1="210.32" x2="383.74" y2="210.32" gradientUnits="userSpaceOnUse"><stop offset="0" stop-color="#ffb800"/><stop offset="0.47" stop-color="#ffa300"/><stop offset="0.98" stop-color="#e2792b"/></linearGradient><linearGradient id="linear-gradient-2" x1="330.08" y1="235.93" x2="462.77" y2="235.93" gradientUnits="userSpaceOnUse"><stop offset="0" stop-color="#ffb800"/><stop offset="1" stop-color="#ffa300"/></linearGradient><linearGradient id="linear-gradient-3" x1="85.15" y1="256.34" x2="270.3" y2="256.34" xlink:href="#linear-gradient"/><linearGradient id="linear-gradient-4" x1="308.37" y1="288.15" x2="155" y2="290.08" xlink:href="#linear-gradient"/><linearGradient id="linear-gradient-5" x1="137.23" y1="320.55" x2="440.1" y2="320.55" xlink:href="#linear-gradient"/><linearGradient id="linear-gradient-6" x1="123.22" y1="440.8" x2="133.19" y2="440.8" xlink:href="#linear-gradient-2"/><linearGradient id="linear-gradient-7" x1="143.73" y1="423.01" x2="158.15" y2="423.01" xlink:href="#linear-gradient-2"/><linearGradient id="linear-gradient-8" x1="125.96" y1="407.73" x2="133.17" y2="407.73" xlink:href="#linear-gradient"/><linearGradient id="linear-gradient-9" x1="153.64" y1="401.56" x2="159.05" y2="401.56" xlink:href="#linear-gradient"/><linearGradient id="linear-gradient-10" x1="140.12" y1="446.84" x2="147.33" y2="446.84" xlink:href="#linear-gradient"/><linearGradient id="linear-gradient-11" x1="136.51" y1="395.26" x2="143.73" y2="395.26" xlink:href="#linear-gradient"/></defs><title>Incognito Cat</title><g id="Layer_1" data-name="Layer 1"><path class="cls-1" d="M337.06,274.75l46.68-96.89a119.5,119.5,0,0,0-29.49-11.25c-.93,3.76.87,13,1,13.49-14.47-39-45.32-48.69-45.32-48.69-24.11,27.49-15.92,68-15.92,68-4.34-4.34-5.78-19.29-5.78-19.29-106.36-34-145.36,62.84-145.87,64.12,25.08-41.46,68.55-45.67,102-27,24.55,13.71,39.22,39.08,57.39,55.46,6.17,5.55,20.46,13.57,28.39,16.52l4.64-9.63c-3.07-1.18-5.16-6-4.39-18C330.33,261.62,330.76,272.44,337.06,274.75Zm-21.87-125.5s22.67,9.17,26,28.46c0,0-6.62-14.19-24.11-22.19,0,0-10.61,14.47-10.12,30.87C307,186.39,302.65,166.13,315.19,149.25Zm14.95,92.6c-6.27-14-23.88-18.81-23.88-18.81C334,222.56,330.14,241.85,330.14,241.85Z"/><path class="cls-2" d="M341.23,177.71s-6.62-14.19-24.11-22.19c0,0-10.61,14.47-10.12,30.87,0,0-4.35-20.26,8.19-37.14C315.19,149.25,337.86,158.42,341.23,177.71Z"/><path class="cls-2" d="M330.14,241.85c-6.27-14-23.88-18.81-23.88-18.81C334,222.56,330.14,241.85,330.14,241.85Z"/><path class="cls-3" d="M462.77,196c-40-14.3-67.36,6.25-68,6.74l9.63-9.64a86.26,86.26,0,0,0-20.67-15.28l-46.68,96.89c3,1.07,7.22.28,13.34-4.39-.27.32-9.8,11.49-15.68,9.25l-4.64,9.63c2.5.94,4.31,1.44,4.89,1.32,2.41-.48,29.9,1,29.9,1s44.36,8.21,58.84-5.3,6.26-42,6.26-42c-1.87,1.4-11.88,3.26-12.5,3.37C453.61,237.49,462.77,196,462.77,196Zm-97.9,58.83c.23-.4,12.26-20.49,33.27,3.85C397.74,258.47,380.6,247.73,364.87,254.87Zm57.19-16.51c.39-.27,13-9.17,17.85-27.47,0,0-16-8-32.09-4.85.72-.28,19.59-7.46,37.95,1.91C445.77,208,440.51,231.82,422.06,238.36Z"/><path class="cls-2" d="M445.77,208s-5.26,23.87-23.71,30.41c.39-.27,13-9.17,17.85-27.47,0,0-16-8-32.09-4.85C408.54,205.76,427.41,198.58,445.77,208Z"/><path class="cls-2" d="M398.14,258.72c-.4-.25-17.54-11-33.27-3.85C365.1,254.47,377.13,234.38,398.14,258.72Z"/><path class="cls-2" d="M350.4,270.36c-.27.32-9.8,11.49-15.68,9.25-3.07-1.18-5.16-6-4.39-18,0,0,.43,10.82,6.73,13.13C340,275.82,344.28,275,350.4,270.36Z"/><path class="cls-4" d="M322.39,293.47c-69-8.66-60-33.37-120-37.15-50.23-3.17-61.86,28.05-64.42,39.39a16.76,16.76,0,0,1-.69-1.72C139.64,192.28,238,208.41,266,245.58,290.44,278,316.25,291,322.39,293.47Z"/><path class="cls-5" d="M323.67,294c-14.28-4.64-75,19.27-75,19.27-85.12,26.94-106.88-9-110.72-17.52,2.56-11.34,14.19-42.56,64.42-39.39,60,3.78,51,28.49,120,37.15C323.06,293.74,323.49,293.9,323.67,294Z"/><path class="cls-2" d="M439.41,281.44C417.47,368,309.89,379.88,309.89,379.88c-130.78,14.82-166.2-55.07-171.8-68.64,9.55,15,44.09,52.43,150.58,51.28C288.67,362.52,394.38,356.84,439.41,281.44Z"/><path class="cls-6" d="M440.1,278.56q-.33,1.45-.69,2.88c-45,75.4-150.74,81.08-150.74,81.08-106.49,1.15-141-36.27-150.58-51.28-.6-1.45-.86-2.26-.86-2.26,17.36,14.47,50.16,36.18,118.64,10.13S362,298.37,362,298.37C425.07,308.79,440.1,278.56,440.1,278.56Z"/><text class="cls-7" transform="translate(159.05 450.4)">Pixelcat</text><rect class="cls-8" x="123.22" y="434.76" width="9.97" height="12.08"/><rect class="cls-9" x="143.73" y="414.27" width="14.42" height="17.47"/><rect class="cls-10" x="125.96" y="403.36" width="7.21" height="8.73"/><rect class="cls-11" x="153.64" y="398.28" width="5.42" height="6.56"/><rect class="cls-12" x="140.12" y="442.47" width="7.21" height="8.73"/><rect class="cls-13" x="136.51" y="390.9" width="7.21" height="8.73"/><text class="cls-14" transform="translate(161.92 479.55)">Productions</text></g><g id="Icons"><path class="cls-15" d="M298.59,207.08c.47,1.2,3.53,5.53,3.25,8.39s-5.64,19.53-2.48,25.89c3.25,6.56,23.38,13.55,27.92,13.34,10.15-.47,17.1-13.42,21.16-18.64,2.3-2.95,7.29-.74,7.29-.74s5,2.2,4.36,5.89c-1.12,6.52-6,20.41.45,28.23,2.9,3.5,21.62,13.68,28.66,11.68,6.82-1.95,15.55-17.19,17.48-19.32s7.2-2.77,8.4-3.23,2.67-3.79,2.2-5c-.93-2.39-19.91-12.55-42.07-19.59-4.42-1.4-6.56-.91-16.54-5.33s-11.07-6.32-15.08-8.64c-20.1-11.64-40.39-18.84-42.79-17.92C299.6,202.56,298.13,205.89,298.59,207.08Z"/><path class="cls-16" d="M341.14,153.33s22.78-37.65,42.44-26.71c15.1,8.4,20.54,12.87,35.18,15.08,9.7,1.47,16.23,12.73,15.94,29.76a136.57,136.57,0,0,1-2,20.54s18.5,5.62,15.56,15.61-28.47,13.15-80.56-8.42C338.48,187.1,312.78,164,315,154.48S341.14,153.33,341.14,153.33Z"/><path class="cls-17" d="M346.73,142.18s-3.29,4.48-5.34,7.69-1.4,6.27,8.81,13.29c13.53,9.31,46.92,23.09,68.7,26.43,8.75,1.34,14.38,2.14,15.38-2,1.25-5.13,1.11-5.18,1.69-11,0,0-7.61-.49-17.27-2.07C405.52,172.37,372,160,357.56,150,349.87,144.62,346.73,142.18,346.73,142.18Z"/></g></svg>