<svg xmlns="http://www.w3.org/2000/svg" xmlns:xlink="http://www.w3.org/1999/xlink" viewBox="0 0 600 600"><defs><style>.cls-1{fill:url(#linear-gradient);}.cls-2{fill:#ffe9cc;}.cls-3{fill:url(#linear-gradient-2);}.cls-4{fill:url(#linear-gradient-3);}.cls-5{fill:url(#linear-gradient-4);}.cls-6{fill:url(#linear-gradient-5);}.cls-7{font-size:70.7px;fill:#191816;font-family:Montserrat-Regular, Montserrat;}.cls-8{fill:url(#linear-gradient-6);}.cls-9{fill:url(#linear-gradient-7);}.cls-10{fill:url(#linear-gradient-8);}.cls-11{fill:url(#linear-gradient-9);}.cls-12{fill:url(#linear-gradient-10);}.cls-13{fill:url(#linear-gradient-11);}.cls-14{font-size:35.59px;fill:#fa0;font-family:MyriadPro-Regular, Myriad Pro;}.cls-15{fill:#bb1a34;}.cls-16{fill:#292f33;}.cls-17{fill:#f5f8fa;}.cls-18{fill:#ccd6dd;}.cls-19{fill:#66757f;}.cls-20{fill:#5dadec;}.cls-21{fill:#8899a6;}.cls-22{fill:#31373d;}.cls-23{fill:#55acee;}</style><linearGradient id="linear-gradient" x1="142.32" y1="210.32" x2="383.74" y2="210.32" gradientUnits="userSpaceOnUse"><stop offset="0" stop-color="#ffb800"/><stop offset="0.47" stop-color="#ffa300"/><stop offset="0.98" stop-color="#e2792b"/></linearGradient><linearGradient id="linear-gradient-2" x1="330.08" y1="235.93" x2="462.77" y2="235.93" gradientUnits="userSpaceOnUse"><stop offset="0" stop-color="#ffb800"/><stop offset="1" stop-color="#ffa300"/></linearGradient><linearGradient id="linear-gradient-3" x1="85.15" y1="256.34" x2="270.3" y2="256.34" xlink:href="#linear-gradient"/><linearGradient id="linear-gradient-4" x1="308.37" y1="288.15" x2="155" y2="290.08" xlink:href="#linear-gradient"/><linearGradient id="linear-gradient-5" x1="137.23" y1="320.55" x2="440.1" y2="320.55" xlink:href="#linear-gradient"/><linearGradient id="linear-gradient-6" x1="123.22" y1="440.8" x2="133.19" y2="440.8" xlink:href="#linear-gradient-2"/><linearGradient id="linear-gradient-7" x1="143.73" y1="423.01" x2="158.15" y2="423.01" xlink:href="#linear-gradient-2"/><linearGradient id="linear-gradient-8" x1="125.96" y1="407.73" x2="133.17" y2="407.73" xlink:href="#linear-gradient"/><linearGradient id="linear-gradient-9" x1="153.64" y1="401.56" x2="159.05" y2="401.56" xlink:href="#linear-gradient"/><linearGradient id="linear-gradient-10" x1="140.12" y1="446.84" x2="147.33" y2="446.84" xlink:href="#linear-gradient"/><linearGradient id="linear-gradient-11" x1="136.51" y1="395.26" x2="143.73" y2="395.26" xlink:href="#linear-gradient"/></defs><title>Music Cat</title><g id="Layer_1" data-name="Layer 1"><path class="cls-1" d="M337.06,274.75l46.68-96.89a119.5,119.5,0,0,0-29.49-11.25c-.93,3.76.87,13,1,13.49-14.47-39-45.32-48.69-45.32-48.69-24.11,27.49-15.92,68-15.92,68-4.34-4.34-5.78-19.29-5.78-19.29-106.36-34-145.36,62.84-145.87,64.12,25.08-41.46,68.55-45.67,102-27,24.55,13.71,39.22,39.08,57.39,55.46,6.17,5.55,20.46,13.57,28.39,16.52l4.64-9.63c-3.07-1.18-5.16-6-4.39-18C330.33,261.62,330.76,272.44,337.06,274.75Zm-21.87-125.5s22.67,9.17,26,28.46c0,0-6.62-14.19-24.11-22.19,0,0-10.61,14.47-10.12,30.87C307,186.39,302.65,166.13,315.19,149.25Zm14.95,92.6c-6.27-14-23.88-18.81-23.88-18.81C334,222.56,330.14,241.85,330.14,241.85Z"/><path class="cls-2" d="M341.23,177.71s-6.62-14.19-24.11-22.19c0,0-10.61,14.47-10.12,30.87,0,0-4.35-20.26,8.19-37.14C315.19,149.25,337.86,158.42,341.23,177.71Z"/><path class="cls-2" d="M330.14,241.85c-6.27-14-23.88-18.81-23.88-18.81C334,222.56,330.14,241.85,330.14,241.85Z"/><path class="cls-3" d="M462.77,196c-40-14.3-67.36,6.25-68,6.74l9.63-9.64a86.26,86.26,0,0,0-20.67-15.28l-46.68,96.89c3,1.07,7.22.28,13.34-4.39-.27.32-9.8,11.49-15.68,9.25l-4.64,9.63c2.5.94,4.31,1.44,4.89,1.32,2.41-.48,29.9,1,29.9,1s44.36,8.21,58.84-5.3,6.26-42,6.26-42c-1.87,1.4-11.88,3.26-12.5,3.37C453.61,237.49,462.77,196,462.77,196Zm-97.9,58.83c.23-.4,12.26-20.49,33.27,3.85C397.74,258.47,380.6,247.73,364.87,254.87Zm57.19-16.51c.39-.27,13-9.17,17.85-27.47,0,0-16-8-32.09-4.85.72-.28,19.59-7.46,37.95,1.91C445.77,208,440.51,231.82,422.06,238.36Z"/><path class="cls-2" d="M445.77,208s-5.26,23.87-23.71,30.41c.39-.27,13-9.17,17.85-27.47,0,0-16-8-32.09-4.85C408.54,205.76,427.41,198.58,445.77,208Z"/><path class="cls-2" d="M398.14,258.72c-.4-.25-17.54-11-33.27-3.85C365.1,254.47,377.13,234.38,398.14,258.72Z"/><path class="cls-2" d="M350.4,270.36c-.27.32-9.8,11.49-15.68,9.25-3.07-1.18-5.16-6-4.39-18,0,0,.43,10.82,6.73,13.13C340,275.82,344.28,275,350.4,270.36Z"/><path class="cls-4" d="M322.39,293.47c-69-8.66-60-33.37-120-37.15-50.23-3.17-61.86,28.05-64.42,39.39a16.76,16.76,0,0,1-.69-1.72C139.64,192.28,238,208.41,266,245.58,290.44,278,316.25,291,322.39,293.47Z"/><path class="cls-5" d="M323.67,294c-14.28-4.64-75,19.27-75,19.27-85.12,26.94-106.88-9-110.72-17.52,2.56-11.34,14.19-42.56,64.42-39.39,60,3.78,51,28.49,120,37.15C323.06,293.74,323.49,293.9,323.67,294Z"/><path class="cls-2" d="M439.41,281.44C417.47,368,309.89,379.88,309.89,379.88c-130.78,14.82-166.2-55.07-171.8-68.64,9.55,15,44.09,52.43,150.58,51.28C288.67,362.52,394.38,356.84,439.41,281.44Z"/><path class="cls-6" d="M440.1,278.56q-.33,1.45-.69,2.88c-45,75.4-150.74,81.08-150.74,81.08-106.49,1.15-141-36.27-150.58-51.28-.6-1.45-.86-2.26-.86-2.26,17.36,14.47,50.16,36.18,118.64,10.13S362,298.37,362,298.37C425.07,308.79,440.1,278.56,440.1,278.56Z"/><text class="cls-7" transform="translate(159.05 450.4)">Pixelcat</text><rect class="cls-8" x="123.22" y="434.76" width="9.97" height="12.08"/><rect class="cls-9" x="143.73" y="414.27" width="14.42" height="17.47"/><rect class="cls-10" x="125.96" y="403.36" width="7.21" height="8.73"/><rect class="cls-11" x="153.64" y="398.28" width="5.42" height="6.56"/><rect class="cls-12" x="140.12" y="442.47" width="7.21" height="8.73"/><rect class="cls-13" x="136.51" y="390.9" width="7.21" height="8.73"/><text class="cls-14" transform="translate(161.92 479.55)">Productions</text></g><g id="Icons"><path class="cls-15" d="M234.92,259.72c-6.52,2.17-8.69-8.69-8.69-8.69s3-3,.72-5.62c3.5-3.49,1.46-5.24,1.46-5.24a15.37,15.37,0,0,0-21.73,0,12.47,12.47,0,0,0-1.7,2.08c-.19.26-.35.54-.52.81l0,.08a15.21,15.21,0,0,0-1.86,4.64,11.88,11.88,0,0,1-2.4,3.25c-4.34,4.35-15.2-2.17-23.9,6.52a2.53,2.53,0,0,0-.21.32c-.29.26-.59.48-.87.77-10.2,10.2-9.23,27.71,2.17,39.11,10.83,10.83,27.17,12.22,37.52,3.59a2.12,2.12,0,0,0,.51-.33c.21-.23.38-.43.59-.65l.49-.44a21,21,0,0,0,6.41-17.85c-.21-3.05-.5-5.43,1.2-7.14,2.17-2.17,8.69,0,13-4.34C243.61,264.07,239,258.35,234.92,259.72Z"/><path class="cls-16" d="M213.9,254.65,261,207.53l6.52,6.52-47.13,47.13Z"/><path class="cls-17" d="M198.58,286.07c5.48,3.92,6,10.67,5.71,14.6a2,2,0,0,0,3,2c7.88-4.48,14.14-11.65,12.41-24.13-.34-2.26.34-6.51,7-7.4s9-3.37,9.86-4.56c.47-.68.89-2.56-1-2.62s-6.44,1.37-10.55-3.49-4.79-6.85-4.92-7.6-4.33-11.35-7.76-5.73c-2.85,4.67-6,13.85-16.25,16.24-4.16,1-9.43,3.09-11,6-2.55,4.93,1.42,8.37,4.84,10.7S198.58,286.07,198.58,286.07Z"/><path class="cls-16" d="M208,256.2l4.34-4.35,10.87,10.86-4.35,4.35Zm-13.75,13.74,4.34-4.34,10.87,10.86-4.35,4.35Z"/><path class="cls-18" d="M190.58,280.09l67-66.86,1.62,1.63-67,66.86Zm2.67,2.67,67-66.86,1.62,1.63-67,66.87Z"/><path class="cls-16" d="M198,283.58a3.08,3.08,0,0,1-4.35,4.35l-6.52-6.52a3.08,3.08,0,0,1,0-4.34h0a3.07,3.07,0,0,1,4.34,0Z"/><circle class="cls-16" cx="207.88" cy="287.37" r="3.07"/><path class="cls-16" d="M212.23,294.51a2.11,2.11,0,1,1-2.1-2.11A2.11,2.11,0,0,1,212.23,294.51Z"/><path class="cls-15" d="M275.66,210.5a3.28,3.28,0,0,1,0,4.64l-13.4,9.28a3.28,3.28,0,0,1-4.64,0l-7-7a3.28,3.28,0,0,1,0-4.64l9.28-13.4a3.28,3.28,0,0,1,4.64,0Z"/><circle class="cls-19" cx="266.55" cy="225.44" r="1.92"/><circle class="cls-19" cx="270.42" cy="222.84" r="1.92"/><circle class="cls-19" cx="274.29" cy="220.25" r="1.92"/><circle class="cls-19" cx="249.93" cy="208.26" r="1.92"/><circle class="cls-19" cx="252.52" cy="204.45" r="1.92"/><circle class="cls-19" cx="255.11" cy="200.64" r="1.92"/><path class="cls-20" d="M176.16,67.88l-13.64,2.79a2.3,2.3,0,0,0-1.75,2.15v34a13.22,13.22,0,0,0-4.29-.71c-5.92,0-10.71,3.73-10.71,8.34s4.79,8.33,10.71,8.33,10.52-3.6,10.69-8.09h0V81.41l9-1.84a2.28,2.28,0,0,0,1.76-2.15V69.31A1.41,1.41,0,0,0,176.16,67.88Zm45,8.58-13.63,2.78a2.3,2.3,0,0,0-1.76,2.15v34a13.21,13.21,0,0,0-4.29-.7c-5.92,0-10.71,3.73-10.71,8.33s4.79,8.34,10.71,8.34,10.52-3.61,10.69-8.1h0V90l9-1.83A2.3,2.3,0,0,0,222.93,86V77.89A1.4,1.4,0,0,0,221.17,76.46Z"/><path class="cls-20" d="M195.45,89.31,181.82,92.1a2.3,2.3,0,0,0-1.76,2.15v34a13.21,13.21,0,0,0-4.29-.7c-5.92,0-10.71,3.73-10.71,8.33s4.79,8.34,10.71,8.34,10.52-3.61,10.69-8.1h0V102.84l9-1.83a2.3,2.3,0,0,0,1.76-2.15V90.75A1.41,1.41,0,0,0,195.45,89.31Z"/><path class="cls-20" d="M426.82,65.74l-13.64,2.79a2.29,2.29,0,0,0-1.75,2.15v34a13.54,13.54,0,0,0-4.29-.7c-5.92,0-10.72,3.73-10.72,8.33s4.8,8.34,10.72,8.34,10.52-3.61,10.69-8.1h0V79.26l9-1.83a2.28,2.28,0,0,0,1.75-2.15V67.17A1.4,1.4,0,0,0,426.82,65.74Zm45,8.57L458.19,77.1a2.3,2.3,0,0,0-1.75,2.15v34a13.26,13.26,0,0,0-4.29-.71c-5.92,0-10.72,3.73-10.72,8.34s4.8,8.33,10.72,8.33,10.52-3.6,10.69-8.09h0V87.84l9-1.84a2.27,2.27,0,0,0,1.75-2.15V75.74A1.4,1.4,0,0,0,471.83,74.31Z"/><path class="cls-20" d="M446.11,87.17,432.47,90a2.3,2.3,0,0,0-1.75,2.15v34a13.26,13.26,0,0,0-4.29-.71c-5.92,0-10.72,3.73-10.72,8.34s4.8,8.33,10.72,8.33,10.52-3.6,10.69-8.09h0V100.7l9-1.84a2.27,2.27,0,0,0,1.75-2.15V88.6A1.4,1.4,0,0,0,446.11,87.17Z"/><path class="cls-20" d="M298.08,19l-13.64,2.78a2.29,2.29,0,0,0-1.75,2.15v34a13.31,13.31,0,0,0-4.29-.7c-5.92,0-10.72,3.73-10.72,8.33s4.8,8.34,10.72,8.34,10.52-3.61,10.68-8.1h0V32.51l9-1.83a2.3,2.3,0,0,0,1.75-2.15V20.42A1.4,1.4,0,0,0,298.08,19Zm45,8.57-13.64,2.79a2.28,2.28,0,0,0-1.75,2.15v34a13.31,13.31,0,0,0-4.29-.7c-5.92,0-10.72,3.73-10.72,8.33s4.8,8.34,10.72,8.34,10.52-3.61,10.68-8.1h0V41.08l9-1.83a2.29,2.29,0,0,0,1.75-2.15V29A1.4,1.4,0,0,0,343.09,27.56Z"/><path class="cls-20" d="M317.37,40.42l-13.64,2.79A2.28,2.28,0,0,0,302,45.36v34a13.31,13.31,0,0,0-4.29-.7C291.77,78.64,287,82.37,287,87s4.8,8.34,10.72,8.34,10.52-3.61,10.68-8.1h0V53.94l9-1.83A2.29,2.29,0,0,0,319.12,50V41.85A1.4,1.4,0,0,0,317.37,40.42Z"/><path class="cls-21" d="M344.3,284.29a17,17,0,1,1-17-17A17,17,0,0,1,344.3,284.29Z"/><path class="cls-22" d="M336.42,300.72a2.13,2.13,0,0,1-3,0l-22.54-22.55a2.13,2.13,0,0,1,0-3l3-3a2.13,2.13,0,0,1,3,0l22.54,22.55a2.12,2.12,0,0,1,0,3Zm-15,.33-10.68-10.68a4.52,4.52,0,0,0-6.72.25L281.4,316.74c-3,3.47-3.61,8.28-1.76,11.68l-12.13,12.13L271,344,283,332c3.41,2.07,8.42,1.5,12-1.6l26.12-22.62A4.52,4.52,0,0,0,321.42,301.05Z"/><path class="cls-23" d="M265.25,269.67v20.07a10.38,10.38,0,0,0-2.47-.31c-4.09,0-7.41,2.22-7.41,4.95s3.32,4.94,7.41,4.94,7.41-2.22,7.41-4.94v-15.1l12.35,5.49v12.38a10.32,10.32,0,0,0-2.47-.3c-4.09,0-7.41,2.21-7.41,4.94s3.32,4.94,7.41,4.94,7.41-2.22,7.41-4.94V279.55Zm34.58-12.35v20.07a10.31,10.31,0,0,0-2.47-.31c-4.09,0-7.41,2.21-7.41,4.94s3.32,4.94,7.41,4.94,7.41-2.21,7.41-4.94v-24.7Z"/></g></svg>