<svg xmlns="http://www.w3.org/2000/svg" xmlns:xlink="http://www.w3.org/1999/xlink" viewBox="0 0 600 600"><defs><style>.cls-1{fill:#66757f;}.cls-2{fill:#ccd6dd;}.cls-3{fill:#99aab5;}.cls-4{fill:url(#linear-gradient);}.cls-5{fill:#ffe9cc;}.cls-6{fill:url(#linear-gradient-2);}.cls-7{fill:url(#linear-gradient-3);}.cls-8{fill:url(#linear-gradient-4);}.cls-9{fill:url(#linear-gradient-5);}.cls-10{font-size:70.7px;fill:#191816;font-family:Montserrat-Regular, Montserrat;}.cls-11{fill:url(#linear-gradient-6);}.cls-12{fill:url(#linear-gradient-7);}.cls-13{fill:url(#linear-gradient-8);}.cls-14{fill:url(#linear-gradient-9);}.cls-15{fill:url(#linear-gradient-10);}.cls-16{fill:url(#linear-gradient-11);}.cls-17{font-size:35.59px;fill:#fa0;font-family:MyriadPro-Regular, Myriad Pro;}.cls-18{fill:#8899a6;}.cls-19{fill:#be1931;}.cls-20{fill:#a0041e;}.cls-21{fill:#dd2e44;}</style><linearGradient id="linear-gradient" x1="142.32" y1="210.32" x2="383.74" y2="210.32" gradientUnits="userSpaceOnUse"><stop offset="0" stop-color="#ffb800"/><stop offset="0.47" stop-color="#ffa300"/><stop offset="0.98" stop-color="#e2792b"/></linearGradient><linearGradient id="linear-gradient-2" x1="330.08" y1="235.93" x2="462.77" y2="235.93" gradientUnits="userSpaceOnUse"><stop offset="0" stop-color="#ffb800"/><stop offset="1" stop-color="#ffa300"/></linearGradient><linearGradient id="linear-gradient-3" x1="85.15" y1="256.34" x2="270.3" y2="256.34" xlink:href="#linear-gradient"/><linearGradient id="linear-gradient-4" x1="308.37" y1="288.15" x2="155" y2="290.08" xlink:href="#linear-gradient"/><linearGradient id="linear-gradient-5" x1="137.23" y1="320.55" x2="440.1" y2="320.55" xlink:href="#linear-gradient"/><linearGradient id="linear-gradient-6" x1="123.22" y1="440.8" x2="133.19" y2="440.8" xlink:href="#linear-gradient-2"/><linearGradient id="linear-gradient-7" x1="143.73" y1="423.01" x2="158.15" y2="423.01" xlink:href="#linear-gradient-2"/><linearGradient id="linear-gradient-8" x1="125.96" y1="407.73" x2="133.17" y2="407.73" xlink:href="#linear-gradient"/><linearGradient id="linear-gradient-9" x1="153.64" y1="401.56" x2="159.05" y2="401.56" xlink:href="#linear-gradient"/><linearGradient id="linear-gradient-10" x1="140.12" y1="446.84" x2="147.33" y2="446.84" xlink:href="#linear-gradient"/><linearGradient id="linear-gradient-11" x1="136.51" y1="395.26" x2="143.73" y2="395.26" xlink:href="#linear-gradient"/></defs><title>Peak Performance Cat</title><g id="Layer_1" data-name="Layer 1"><circle class="cls-1" cx="479.21" cy="274.82" r="15.85"/><path class="cls-2" d="M468.84,276.51c0-7.08,2.24-13.22,0-17.7-3.53-7.08-18-17.76-35.39-21.23-17.7-3.54-46,0-49.56,21.23-2.33,14,7.08,21.24,17.7,28.32s52.07,10.62,70.79,3.54C475.7,289.42,468.84,287.13,468.84,276.51Z"/><path class="cls-3" d="M472.38,290.67c3.26-1.23-3.29-3.48-3.51-13.63a222.37,222.37,0,0,1-41.39-2.83,133.35,133.35,0,0,1-43.57-15.47l0,.07c-2.33,14,7.08,21.24,17.7,28.32S453.66,297.75,472.38,290.67Z"/><circle class="cls-1" cx="479.44" cy="203.38" r="8.57"/><path class="cls-3" d="M478.07,274.84c-6.45-11.91-4.09-23.2-2.11-36.6,1.89-12.72-4.22-29.16-4.22-29.16l16.13-7.2s5.19,4.26,10.71,16.63c7.2,16.13,16,41.19,2.08,61.05C497.18,284.52,484.53,286.75,478.07,274.84Z"/><path class="cls-2" d="M488.18,283.17c-3.71-.89-7.44-3.4-10.11-8.33-6.45-11.91-4.09-23.2-2.11-36.6,1.89-12.71-4.22-29.16-4.22-29.16l9.6-4.28S503.88,248.53,488.18,283.17Z"/><path class="cls-3" d="M466,201.39l-9.93-6.95c-5-3.48-4.22.74-4.22.74s1.49,8.44-2.73,9.19S437.75,189,441.22,184s23.82-12.91,28-13.65,16.38,18.86,17.87,27.3C487.13,197.67,471,204.87,466,201.39Z"/><path class="cls-3" d="M477.21,190.72s4.21-.75,2.72-9.18,6.95-9.93,7.7-5.71,3,16.87-.5,21.84Z"/><path class="cls-2" d="M470.22,202.33c-1.45-10.13-8.65-26.26-29-18.31,3.48-5,23.82-12.91,28-13.65s16.38,18.86,17.87,27.3C487.13,197.67,476.89,202.24,470.22,202.33Z"/><path class="cls-4" d="M337.06,274.75l46.68-96.89a119.5,119.5,0,0,0-29.49-11.25c-.93,3.76.87,13,1,13.49-14.47-39-45.32-48.69-45.32-48.69-24.11,27.49-15.92,68-15.92,68-4.34-4.34-5.78-19.29-5.78-19.29-106.36-34-145.36,62.84-145.87,64.12,25.08-41.46,68.55-45.67,102-27,24.55,13.71,39.22,39.08,57.39,55.46,6.17,5.55,20.46,13.57,28.39,16.52l4.64-9.63c-3.07-1.18-5.16-6-4.39-18C330.33,261.62,330.76,272.44,337.06,274.75Zm-21.87-125.5s22.67,9.17,26,28.46c0,0-6.62-14.19-24.11-22.19,0,0-10.61,14.47-10.12,30.87C307,186.39,302.65,166.13,315.19,149.25Zm14.95,92.6c-6.27-14-23.88-18.81-23.88-18.81C334,222.56,330.14,241.85,330.14,241.85Z"/><path class="cls-5" d="M341.23,177.71s-6.62-14.19-24.11-22.19c0,0-10.61,14.47-10.12,30.87,0,0-4.35-20.26,8.19-37.14C315.19,149.25,337.86,158.42,341.23,177.71Z"/><path class="cls-5" d="M330.14,241.85c-6.27-14-23.88-18.81-23.88-18.81C334,222.56,330.14,241.85,330.14,241.85Z"/><path class="cls-6" d="M462.77,196c-40-14.3-67.36,6.25-68,6.74l9.63-9.64a86.26,86.26,0,0,0-20.67-15.28l-46.68,96.89c3,1.07,7.22.28,13.34-4.39-.27.32-9.8,11.49-15.68,9.25l-4.64,9.63c2.5.94,4.31,1.44,4.89,1.32,2.41-.48,29.9,1,29.9,1s44.36,8.21,58.84-5.3,6.26-42,6.26-42c-1.87,1.4-11.88,3.26-12.5,3.37C453.61,237.49,462.77,196,462.77,196Zm-97.9,58.83c.23-.4,12.26-20.49,33.27,3.85C397.74,258.47,380.6,247.73,364.87,254.87Zm57.19-16.51c.39-.27,13-9.17,17.85-27.47,0,0-16-8-32.09-4.85.72-.28,19.59-7.46,37.95,1.91C445.77,208,440.51,231.82,422.06,238.36Z"/><path class="cls-5" d="M445.77,208s-5.26,23.87-23.71,30.41c.39-.27,13-9.17,17.85-27.47,0,0-16-8-32.09-4.85C408.54,205.76,427.41,198.58,445.77,208Z"/><path class="cls-5" d="M398.14,258.72c-.4-.25-17.54-11-33.27-3.85C365.1,254.47,377.13,234.38,398.14,258.72Z"/><path class="cls-5" d="M350.4,270.36c-.27.32-9.8,11.49-15.68,9.25-3.07-1.18-5.16-6-4.39-18,0,0,.43,10.82,6.73,13.13C340,275.82,344.28,275,350.4,270.36Z"/><path class="cls-7" d="M322.39,293.47c-69-8.66-60-33.37-120-37.15-50.23-3.17-61.86,28.05-64.42,39.39a16.76,16.76,0,0,1-.69-1.72C139.64,192.28,238,208.41,266,245.58,290.44,278,316.25,291,322.39,293.47Z"/><path class="cls-8" d="M323.67,294c-14.28-4.64-75,19.27-75,19.27-85.12,26.94-106.88-9-110.72-17.52,2.56-11.34,14.19-42.56,64.42-39.39,60,3.78,51,28.49,120,37.15C323.06,293.74,323.49,293.9,323.67,294Z"/><path class="cls-5" d="M439.41,281.44C417.47,368,309.89,379.88,309.89,379.88c-130.78,14.82-166.2-55.07-171.8-68.64,9.55,15,44.09,52.43,150.58,51.28C288.67,362.52,394.38,356.84,439.41,281.44Z"/><path class="cls-9" d="M440.1,278.56q-.33,1.45-.69,2.88c-45,75.4-150.74,81.08-150.74,81.08-106.49,1.15-141-36.27-150.58-51.28-.6-1.45-.86-2.26-.86-2.26,17.36,14.47,50.16,36.18,118.64,10.13S362,298.37,362,298.37C425.07,308.79,440.1,278.56,440.1,278.56Z"/><text class="cls-10" transform="translate(159.05 450.4)">Pixelcat</text><rect class="cls-11" x="123.22" y="434.76" width="9.97" height="12.08"/><rect class="cls-12" x="143.73" y="414.27" width="14.42" height="17.47"/><rect class="cls-13" x="125.96" y="403.36" width="7.21" height="8.73"/><rect class="cls-14" x="153.64" y="398.28" width="5.42" height="6.56"/><rect class="cls-15" x="140.12" y="442.47" width="7.21" height="8.73"/><rect class="cls-16" x="136.51" y="390.9" width="7.21" height="8.73"/><text class="cls-17" transform="translate(161.92 479.55)">Productions</text><circle class="cls-1" cx="173.53" cy="424.5" r="7.39"/><circle class="cls-1" cx="153.71" cy="365.62" r="13.58"/><path class="cls-2" d="M151.92,350.46c9-6,37.24-11.94,43.57-12.47s13.35.87,15.81,3.16A16.72,16.72,0,0,1,217.09,355c-.52,7.38-4.39,13.7-12.47,14.93s-25.29-2.46-33,.7c-4.68,1.92-5.62.53-6.85-2.81a43.72,43.72,0,0,0-6.52-10.7C154.74,352.92,148.18,353,151.92,350.46Z"/><path class="cls-3" d="M204.62,370c8.08-1.23,11.95-7.55,12.47-14.93a17.26,17.26,0,0,0-.12-3.41c-16.74-.63-43.79,3.24-55.42,10.2a33.69,33.69,0,0,1,3.2,6c1.23,3.33,2.17,4.72,6.85,2.81C179.33,367.5,196.54,371.19,204.62,370Zm-62,2.07c-3.25,6.5-1.49,17.84,9.76,32.53,6.76,8.83,10.82,14.31,14.07,17.57s16.26,0,13-6.51c-9.76-19.52,2.2-30.58-19.37-44.5C150.78,365.09,144.88,367.58,142.66,372Z"/><path class="cls-2" d="M173.73,423.05c4-.94,7.67-3.63,5.77-7.43-9.76-19.52,2.2-30.58-19.37-44.5-4.06-2.62-7.47-3.63-10.21-3.57C168.69,385,160,396.1,173.73,423.05Z"/><path class="cls-18" d="M163.19,424.29c.83.75,3.36,1.27,5,1.77a40.6,40.6,0,0,1-2.17-3.71.64.64,0,0,0-.88-.28l-2,1.26C162.71,423.52,162.88,424,163.19,424.29Zm-20.31,16.5a27.6,27.6,0,0,0,9.33,1.93c.22,0,8.1,0,12,0l6.18,0h1.29c5.45,0,9.22.31,10.85-1.13a1.17,1.17,0,0,0,.34-.88,10,10,0,0,0,0-1c-.11.37-16.47,1.42-21.93,1.71-18,1-22.44-4.24-22.64-4.69C138.32,436.68,138.74,439.19,142.88,440.79Z"/><path class="cls-19" d="M151.19,439.42c6.11.39,30.61-1.94,30.61-1.94l.64-.9c.63-.9.52-2.32.53-3.54s-.35-5.8-.89-7-1.64-2.53-2.66-2.1c-1.28.54-3.61,3.33-5.59,3.31-2.86,0-9.51-4.38-10.45-4.39-1.41,0-1.75,1.54-4.85,2.7l-8.06,3.1c-1.69.63-1.8,1-2.7,1.31-1.86.71-5.9,1.93-7.48,2.55a3.22,3.22,0,0,0-2.2,2.74,2.71,2.71,0,0,0,.23,1.4S140.78,438.76,151.19,439.42Z"/><path class="cls-20" d="M173.82,428.4c2.39,0,5.21-3.52,6.79-4.24a1.22,1.22,0,0,0-1.19-.2c-1.28.53-3.61,3.32-5.59,3.31-2.86,0-9.51-4.38-10.45-4.39a1.72,1.72,0,0,0-1,.31C164.71,424.65,170.93,428.38,173.82,428.4Z"/><path class="cls-21" d="M182,437.17a1.08,1.08,0,0,0,.43-.37c.64-.85.6-2.17.61-3.32a35.06,35.06,0,0,0-.46-5.29c-1.12.2-7,1.27-9.17,2.28s-4.17,4.31-4.74,5.87C168.63,436.4,182,437.17,182,437.17Z"/><path class="cls-2" d="M161,427.18l-1.12-1.79a.86.86,0,0,1,.33-1.21,1,1,0,0,1,1.29.31l1.12,1.78a.87.87,0,0,1-.33,1.22,1,1,0,0,1-1.06-.06A.92.92,0,0,1,161,427.18Zm-3.37,1.56-.87-2a.87.87,0,0,1,.52-1.16,1,1,0,0,1,1.22.49l.88,2a.88.88,0,0,1-.52,1.16,1,1,0,0,1-.93-.12A.91.91,0,0,1,157.6,428.74Zm-3.54,1-.57-1.93a.89.89,0,0,1,.66-1.09,1,1,0,0,1,1.16.62l.56,1.93a.88.88,0,0,1-.66,1.09,1,1,0,0,1-.83-.15A.91.91,0,0,1,154.06,429.76Zm-3.51.84-.37-1.55a.88.88,0,0,1,.71-1.06,1,1,0,0,1,1.13.67l.36,1.55a.88.88,0,0,1-.71,1.06,1,1,0,0,1-.78-.17A.84.84,0,0,1,150.55,430.6Zm32.38,9.34c0,.36-.41.94-2.37,1.52-1.38.4-7.93.34-10.12.32s-15.77.1-18.21.05a29.43,29.43,0,0,1-8.73-1.61c-3.79-1.24-5-3.12-5.18-3.54a12.57,12.57,0,0,0,4.13,1.35c1.32.23,3.47.49,5.85.7a44,44,0,0,0,7.62-.24c2-.22,8.08-1.73,11.45-2.14a83.08,83.08,0,0,1,9.55-.29,10.71,10.71,0,0,1,3.79.56,3.75,3.75,0,0,0,1.76.33C183.22,437,182.94,439.09,182.93,439.94Z"/><path class="cls-21" d="M138.68,433.73c1.12.79,4.15.94,6.75.16,3.25-1,3.68-2.44,3.2-3.85a1.81,1.81,0,0,0-.18-.37c-.74.3-2,.71-2.22.83-1.85.72-4.36,1.42-5.93,2A3.58,3.58,0,0,0,138.68,433.73Z"/><circle class="cls-1" cx="380.28" cy="418.56" r="7.39"/><circle class="cls-1" cx="400.11" cy="359.68" r="13.58"/><path class="cls-2" d="M395.58,351.21a43.55,43.55,0,0,0-6.51,10.71c-1.23,3.33-2.17,4.72-6.85,2.81-7.73-3.17-25,.52-33-.71s-11.94-7.55-12.47-14.93a16.7,16.7,0,0,1,5.8-13.87c2.45-2.29,9.48-3.69,15.81-3.16s34.6,6.49,43.56,12.47C405.63,347,399.08,347,395.58,351.21Z"/><path class="cls-3" d="M382.21,364.73c4.68,1.91,5.62.53,6.85-2.81a33.69,33.69,0,0,1,3.2-6c-11.63-7-38.68-10.83-55.41-10.2a16.58,16.58,0,0,0-.13,3.42c.53,7.37,4.39,13.69,12.47,14.93S374.49,361.56,382.21,364.73Zm11.47.45c-21.57,13.92-9.61,25-19.37,44.5-3.25,6.51,9.76,9.76,13,6.51s7.31-8.74,14.07-17.57c11.26-14.69,13-26,9.76-32.53C408.93,361.64,403,359.16,393.68,365.18Z"/><path class="cls-2" d="M403.89,361.61c-2.74-.05-6.15,1-10.21,3.58-21.57,13.91-9.61,25-19.37,44.49-1.9,3.81,1.76,6.5,5.77,7.43C393.83,390.16,385.13,379.1,403.89,361.61Z"/><path class="cls-18" d="M390.72,417.39l-2-1.26a.65.65,0,0,0-.88.28,38.64,38.64,0,0,1-2.17,3.72c1.61-.51,4.14-1,5-1.78C390.93,418.07,391.1,417.58,390.72,417.39Zm24.77,13.36c-.19.44-4.59,5.65-22.63,4.69-5.46-.3-21.83-1.35-21.93-1.72a8.56,8.56,0,0,0,0,1,1.21,1.21,0,0,0,.35.89c1.63,1.44,5.39,1.16,10.84,1.13h1.29c.84,0,3.31,0,6.19,0,3.93,0,11.81,0,12,0a27.36,27.36,0,0,0,9.32-1.93C415.07,433.25,415.49,430.74,415.49,430.75Z"/><path class="cls-19" d="M415.5,430.74a2.79,2.79,0,0,0,.22-1.4,3.22,3.22,0,0,0-2.2-2.74c-1.57-.62-5.62-1.84-7.48-2.55a28.83,28.83,0,0,0-2.7-1.3s-6.61-2.56-8.06-3.1c-3.1-1.17-3.44-2.72-4.85-2.71-.94,0-7.59,4.38-10.45,4.39-2,0-4.31-2.77-5.59-3.31-1-.43-2.11.92-2.65,2.11s-.91,5.75-.9,7-.1,2.64.54,3.54l.63.9s24.5,2.33,30.61,1.94C413,432.82,415.5,430.74,415.5,430.74Z"/><path class="cls-20" d="M391.44,417.26a1.78,1.78,0,0,0-1-.32c-.94,0-7.58,4.37-10.45,4.39-2,0-4.31-2.77-5.59-3.31a1.2,1.2,0,0,0-1.18.2c1.57.72,4.39,4.25,6.79,4.24C382.88,422.44,389.1,418.71,391.44,417.26Z"/><path class="cls-21" d="M385.16,430.4c-.57-1.56-2.47-4.79-4.74-5.87s-8-2.08-9.17-2.28a36.44,36.44,0,0,0-.46,5.29c0,1.15,0,2.48.61,3.32a1.16,1.16,0,0,0,.43.37S385.18,430.46,385.16,430.4Z"/><path class="cls-2" d="M392.61,421.49a1,1,0,0,1-1.06.06.86.86,0,0,1-.33-1.21l1.12-1.79a1,1,0,0,1,1.29-.31.86.86,0,0,1,.33,1.22l-1.12,1.78A.92.92,0,0,1,392.61,421.49Zm3.31,1.68a1,1,0,0,1-.94.13.87.87,0,0,1-.51-1.16l.87-2a1,1,0,0,1,1.23-.48.88.88,0,0,1,.52,1.16l-.88,2A.94.94,0,0,1,395.92,423.17Zm3.51,1.12a1,1,0,0,1-.83.16.9.9,0,0,1-.66-1.1l.56-1.93a1,1,0,0,1,1.16-.62.88.88,0,0,1,.66,1.09l-.56,1.93A1,1,0,0,1,399.43,424.29Zm3.5.88a1,1,0,0,1-.79.16.88.88,0,0,1-.71-1.06l.37-1.54a.94.94,0,0,1,1.12-.67.89.89,0,0,1,.72,1.06l-.37,1.54A1,1,0,0,1,402.93,425.17ZM371.34,431a3.88,3.88,0,0,0,1.77-.32,10.43,10.43,0,0,1,3.79-.57,83,83,0,0,1,9.54.29c3.38.41,9.41,1.92,11.45,2.14a44,44,0,0,0,7.62.24c2.39-.21,4.53-.47,5.85-.7a12.64,12.64,0,0,0,4.14-1.35c-.18.42-1.4,2.3-5.18,3.54a29.17,29.17,0,0,1-8.74,1.61c-2.43.05-16-.06-18.2,0s-8.75.08-10.12-.33c-2-.58-2.37-1.16-2.38-1.51C370.88,433.15,370.59,431,371.34,431Z"/><path class="cls-21" d="M413.52,426.6c-1.58-.62-4.08-1.32-5.94-2-.25-.12-1.47-.52-2.22-.82a2,2,0,0,0-.18.36c-.48,1.41-.05,2.88,3.2,3.85,2.61.78,5.63.63,6.75-.16A3.67,3.67,0,0,0,413.52,426.6Z"/></g><g id="Icons"><circle class="cls-1" cx="216.65" cy="278.31" r="15.85"/><path class="cls-2" d="M223.48,294.16c18.72,7.08,60.17,3.54,70.79-3.54s20-14.35,17.7-28.32c-3.54-21.24-31.86-24.78-49.56-21.24-17.35,3.48-31.86,14.16-35.39,21.24-2.24,4.48,0,10.62,0,17.7C227,290.62,220.16,292.91,223.48,294.16Z"/><path class="cls-3" d="M294.27,290.62c10.62-7.08,20-14.35,17.7-28.32l0-.07a133.26,133.26,0,0,1-43.57,15.47A221.36,221.36,0,0,1,227,280.52c-.22,10.16-6.77,12.41-3.51,13.64C242.2,301.24,283.65,297.7,294.27,290.62Z"/><circle class="cls-1" cx="216.42" cy="206.86" r="8.57"/><path class="cls-3" d="M195.2,283.05c-13.89-19.86-5.12-44.92,2.08-61.05C202.8,209.62,208,205.37,208,205.37l16.13,7.2S218,229,219.9,241.73c2,13.4,4.34,24.69-2.11,36.6S198.68,288,195.2,283.05Z"/><path class="cls-2" d="M214.52,208.29l9.6,4.28S218,229,219.9,241.73c2,13.4,4.34,24.69-2.11,36.6-2.67,4.93-6.4,7.44-10.11,8.33C192,252,214.52,208.29,214.52,208.29Z"/><path class="cls-3" d="M208.73,201.15c1.49-8.43,13.65-28,17.87-27.29s24.56,8.68,28,13.65-3.72,21.09-7.94,20.35-2.73-9.19-2.73-9.19.74-4.22-4.22-.74l-9.93,6.95C224.86,208.35,208.73,201.15,208.73,201.15Z"/><path class="cls-3" d="M208.73,201.15c-3.47-5-1.24-17.62-.5-21.83s9.19-2.73,7.7,5.71,2.72,9.18,2.72,9.18Z"/><path class="cls-2" d="M208.73,201.15c1.49-8.43,13.65-28,17.87-27.29s24.56,8.68,28,13.65c-20.35-7.95-27.55,8.18-29,18.31C219,205.72,208.73,201.15,208.73,201.15Z"/></g></svg>